<svg xmlns="http://www.w3.org/2000/svg" xmlns:v="https://svgstorm.com"
viewBox = "0 0 1024 1024"
width="1024"
height="1024">
<g fill="None" fill-opacity="0.0" stroke="#FEFEFF" stroke-opacity="1.00" stroke-width="0.3"><path d="
M 0.00 1024.00 
L 1024.00 1024.00
L 1024.00 0.00
L 0.00 0.00
L 0.00 1024.00
M 746.00 128.00 
C 773.95 130.70 806.66 133.86 830.75 149.25 C 854.83 164.65 868.66 178.07 881.31 204.69 C 893.95 231.32 898.22 261.63 898.00 294.00 C 897.78 326.37 898.12 366.22 898.00 400.00 C 897.88 433.78 898.11 471.83 898.00 506.00 C 897.89 540.17 898.17 578.22 898.00 612.00 C 897.83 645.78 898.35 685.65 898.00 718.00 C 897.65 750.35 895.88 783.96 884.02 811.03 C 872.17 838.09 861.06 853.04 836.75 869.75 C 812.45 886.47 786.95 892.39 755.78 894.78 C 724.61 897.17 684.39 895.63 651.00 896.00 C 617.61 896.37 579.10 895.87 545.00 896.00 C 510.90 896.13 472.98 896.03 439.00 896.00 C 405.02 895.97 365.97 896.21 333.00 896.00 C 300.03 895.79 262.09 896.59 232.98 889.02 C 203.86 881.46 185.98 871.95 165.75 850.25 C 145.53 828.55 137.02 808.66 131.22 778.78 C 125.42 748.90 127.19 710.17 127.00 677.00 C 126.81 643.83 127.05 605.08 127.00 571.00 C 126.95 536.92 126.94 499.15 127.00 465.00 C 127.06 430.85 126.80 392.43 127.00 359.00 C 127.20 325.57 125.48 285.34 129.78 254.78 C 134.07 224.21 141.20 202.01 160.25 179.25 C 179.30 156.49 195.55 145.85 224.22 137.22 C 252.90 128.59 288.13 128.20 321.00 128.00 C 353.87 127.80 392.79 127.84 427.00 128.00 C 461.21 128.16 498.19 127.37 533.00 128.00 C 567.81 128.63 603.95 126.48 639.00 128.00 C 674.05 129.52 711.01 124.61 746.00 128.00 Z"/>
</g>
<g fill="None" fill-opacity="0.0" stroke="#D1F2FF" stroke-opacity="1.00" stroke-width="0.3"><path d="
M 746.00 128.00 
C 711.01 124.61 674.05 129.52 639.00 128.00 C 603.95 126.48 567.81 128.63 533.00 128.00 C 498.19 127.37 461.21 128.16 427.00 128.00 C 392.79 127.84 353.87 127.80 321.00 128.00 C 288.13 128.20 252.90 128.59 224.22 137.22 C 195.55 145.85 179.30 156.49 160.25 179.25 C 141.20 202.01 134.07 224.21 129.78 254.78 C 125.48 285.34 127.20 325.57 127.00 359.00 C 126.80 392.43 127.06 430.85 127.00 465.00 C 126.94 499.15 126.95 536.92 127.00 571.00 C 127.05 605.08 126.81 643.83 127.00 677.00 C 127.19 710.17 125.42 748.90 131.22 778.78 C 137.02 808.66 145.53 828.55 165.75 850.25 C 185.98 871.95 203.86 881.46 232.98 889.02 C 262.09 896.59 300.03 895.79 333.00 896.00 C 365.97 896.21 405.02 895.97 439.00 896.00 C 472.98 896.03 510.90 896.13 545.00 896.00 C 579.10 895.87 617.61 896.37 651.00 896.00 C 684.39 895.63 724.61 897.17 755.78 894.78 C 786.95 892.39 812.45 886.47 836.75 869.75 C 861.06 853.04 872.17 838.09 884.02 811.03 C 895.88 783.96 897.65 750.35 898.00 718.00 C 898.35 685.65 897.83 645.78 898.00 612.00 C 898.17 578.22 897.89 540.17 898.00 506.00 C 898.11 471.83 897.88 433.78 898.00 400.00 C 898.12 366.22 897.78 326.37 898.00 294.00 C 898.22 261.63 893.95 231.32 881.31 204.69 C 868.66 178.07 854.83 164.65 830.75 149.25 C 806.66 133.86 773.95 130.70 746.00 128.00
M 515.00 197.00 
C 521.26 199.01 522.95 210.53 527.92 215.08 C 532.89 219.63 536.30 228.52 540.92 234.08 C 545.54 239.64 549.52 247.00 553.92 253.08 C 558.32 259.17 562.55 265.72 566.92 272.08 C 571.29 278.44 575.34 284.81 579.31 291.70 C 583.27 298.58 587.34 305.19 589.98 313.03 C 592.61 320.86 595.61 328.44 596.93 337.07 C 598.24 345.71 598.19 358.13 596.67 366.67 C 595.15 375.21 592.58 383.55 589.08 391.08 C 585.57 398.60 582.36 404.70 576.75 410.75 C 571.14 416.81 566.47 421.30 559.77 425.77 C 553.07 430.24 545.89 433.60 537.93 435.93 C 529.97 438.25 518.63 440.49 510.00 440.00 C 501.37 439.51 491.74 437.64 483.98 435.02 C 476.21 432.41 469.13 428.93 462.77 424.23 C 456.41 419.53 451.49 414.83 446.25 408.75 C 441.00 402.67 437.90 396.22 434.23 388.77 C 430.56 381.32 429.50 371.80 427.67 363.33 C 425.85 354.85 427.39 342.09 428.78 333.78 C 430.16 325.46 432.67 317.35 435.93 309.93 C 439.19 302.50 442.70 295.61 446.92 288.92 C 451.13 282.23 455.00 275.69 459.30 269.30 C 463.61 262.91 468.10 256.52 472.30 250.30 C 476.51 244.08 481.17 237.21 485.30 231.30 C 489.43 225.40 494.23 217.52 498.30 212.30 C 502.38 207.09 507.06 194.45 515.00 197.00
M 690.00 259.00 
C 694.90 260.87 692.49 273.90 695.92 278.08 C 699.35 282.25 699.27 290.48 704.75 294.25 C 710.24 298.01 711.77 303.91 718.75 306.25 C 725.72 308.60 727.72 313.00 737.07 312.93 C 746.43 312.86 744.81 322.14 735.93 321.93 C 727.04 321.72 723.83 325.66 717.31 328.31 C 710.78 330.95 707.78 336.36 703.70 340.70 C 699.62 345.03 697.01 352.75 695.07 357.07 C 693.13 361.40 693.04 376.71 687.32 374.66 C 681.60 372.62 684.41 360.49 681.22 355.78 C 678.03 351.07 677.28 344.16 672.25 339.75 C 667.22 335.34 665.60 330.33 658.30 327.70 C 651.01 325.06 649.66 321.70 639.93 321.07 C 630.19 320.45 632.86 312.33 641.67 312.67 C 650.48 313.01 653.13 307.94 659.70 305.69 C 666.26 303.45 668.89 297.09 673.25 293.25 C 677.62 289.42 679.70 280.86 681.93 276.93 C 684.16 272.99 683.63 256.57 690.00 259.00
M 361.00 362.00 
C 383.08 365.59 392.64 394.61 378.25 411.25 C 363.85 427.88 336.09 425.42 327.08 403.92 C 318.06 382.43 336.98 358.10 361.00 362.00
M 515.00 480.00 
C 566.03 489.67 595.88 545.24 646.00 558.00
C 646.78 558.20 647.55 558.87 648.00 559.00
C 649.20 559.36 650.76 558.83 652.00 559.00
C 653.12 559.16 653.35 559.82 654.00 560.00
C 654.99 560.12 656.01 559.88 657.00 560.00
C 658.42 560.17 658.07 560.63 659.00 561.00
C 664.91 562.36 670.97 563.00 677.00 564.00
C 678.14 564.19 678.30 564.78 679.00 565.00
C 685.08 566.01 690.79 567.27 697.00 568.00
C 698.28 568.15 698.21 568.75 699.00 569.00
C 710.09 570.84 720.76 573.68 732.00 575.00
C 733.58 575.19 732.94 575.29 734.00 576.00
C 734.50 575.97 735.00 576.00 735.00 576.00
C 736.58 575.90 736.06 576.71 737.00 577.00
C 751.34 581.47 765.43 582.98 777.25 593.75 C 789.06 604.53 794.54 616.82 797.00 632.00
C 799.57 647.85 800.76 668.22 791.08 682.08 C 781.40 695.94 760.51 695.48 745.00 695.00
C 742.19 712.32 731.12 728.58 716.00 738.00
C 727.61 734.72 744.64 738.92 758.00 738.00 C 771.36 737.08 788.02 740.78 802.00 739.00
C 798.58 741.21 793.18 739.42 789.00 740.00
C 789.73 742.92 786.76 745.41 789.00 748.00
C 783.70 743.38 788.02 754.95 784.23 756.57 C 780.44 758.19 778.10 762.75 776.00 767.00
C 772.41 766.71 768.96 770.53 765.25 772.26 C 761.55 773.99 762.00 784.94 758.00 777.00
C 756.18 779.89 759.58 779.88 759.00 783.00
C 755.77 778.49 752.93 786.52 748.77 786.77 C 744.61 787.02 738.44 788.35 737.00 793.00
C 735.65 788.22 729.75 791.93 732.00 796.00
C 729.19 796.00 730.54 791.87 727.00 794.00
C 728.48 796.28 722.50 800.63 720.00 798.00
C 719.55 800.98 719.21 801.03 716.00 800.00
C 716.37 805.35 713.81 799.95 713.00 798.00
C 711.74 799.98 713.74 803.12 710.00 800.00
C 710.55 804.32 708.23 801.66 707.00 800.00
C 708.87 806.07 700.79 805.13 700.00 802.00
C 699.57 806.98 695.35 805.61 691.00 804.00
C 693.03 810.76 686.18 805.91 682.00 806.00
C 680.53 809.33 679.94 810.37 677.00 812.00
C 680.51 806.67 671.35 808.70 673.00 813.00
C 671.18 809.81 670.29 812.00 669.00 814.00
C 665.66 810.61 659.67 810.34 654.97 811.98 C 650.27 813.62 640.75 810.67 638.00 817.00
C 637.78 814.23 632.62 811.18 635.00 816.00
C 632.74 813.94 625.05 811.40 627.00 817.00
C 621.19 817.59 611.44 811.58 609.00 818.00
C 603.02 816.93 589.05 812.00 590.00 819.00
C 586.68 817.21 587.51 817.32 585.00 819.00
C 584.33 817.93 584.28 815.61 583.00 814.00
C 583.56 819.22 577.56 817.19 574.00 815.00
C 575.27 819.44 570.17 815.70 569.00 819.00
C 568.31 816.28 566.35 817.37 566.00 815.00
C 564.07 817.95 563.68 816.90 561.00 819.00
C 562.17 814.57 556.40 819.41 556.00 814.00
C 554.36 816.82 550.97 818.48 546.92 816.07 C 542.86 813.65 539.08 821.85 535.33 818.67 C 531.57 815.49 527.08 819.33 527.00 816.00
C 523.44 816.44 527.41 820.46 524.00 820.00
C 522.64 815.32 516.96 817.88 514.00 815.00
C 516.37 818.87 511.82 821.06 510.00 817.00
C 504.95 824.18 496.65 815.22 490.00 820.00
C 490.93 813.69 481.47 823.75 479.00 817.00
C 480.56 823.42 477.48 818.81 475.00 817.00
C 473.23 820.25 463.32 819.32 463.00 814.00
C 459.71 818.91 452.93 817.24 449.00 815.00
C 446.01 818.75 441.23 816.47 437.00 817.00 C 432.77 817.53 426.66 820.45 429.00 815.00
C 427.05 817.74 425.04 820.24 424.00 815.00
C 421.09 821.86 414.35 813.20 410.97 815.02 C 407.60 816.84 401.63 816.47 398.00 812.00
C 400.19 818.15 393.31 812.64 390.00 816.00
C 392.07 812.08 386.82 813.42 384.00 812.00
C 389.21 815.84 379.90 815.44 380.00 811.00
C 376.51 812.79 375.18 812.62 378.00 809.00
C 373.84 808.27 374.92 813.89 371.00 813.00
C 374.70 808.19 359.60 815.34 360.00 807.00
C 357.99 808.22 356.86 811.48 357.00 807.00
C 353.15 808.08 344.46 810.64 344.00 805.00
C 341.97 806.43 337.13 808.68 338.00 804.00
C 334.47 805.52 332.39 805.39 329.00 803.00
C 327.43 808.34 318.56 804.98 322.00 800.00
C 316.81 802.25 317.07 799.29 312.00 802.00
C 309.36 799.31 308.09 797.30 305.00 801.00
C 305.94 796.88 300.23 797.26 295.78 796.22 C 291.32 795.18 287.09 793.88 282.00 793.00
C 283.69 791.08 288.23 793.14 286.00 789.00
C 283.67 791.60 282.45 790.21 283.00 787.00
C 280.72 786.98 275.69 791.28 278.00 786.00
C 274.84 784.79 272.61 786.05 269.00 786.00
C 273.66 784.45 269.69 780.88 267.00 782.00
C 266.58 778.41 262.06 771.11 260.00 777.00
C 260.68 770.22 254.38 771.31 251.00 770.00
C 252.11 762.91 245.68 764.19 241.00 762.00
C 243.86 759.65 240.18 752.71 238.00 757.00
C 235.55 753.32 241.04 754.88 240.00 751.00
C 237.38 752.41 235.47 746.93 236.00 744.00
C 234.51 749.85 231.47 742.02 232.00 739.00
C 229.09 739.75 227.10 739.10 224.00 739.00
C 241.26 736.01 261.81 740.00 279.00 737.00
C 263.80 727.19 255.10 710.65 251.00 694.00
C 244.16 694.32 237.57 693.80 231.00 693.00
C 216.47 690.04 205.42 679.47 202.00 665.00
C 197.11 644.31 204.00 617.87 201.00 597.00 C 198.00 576.13 213.81 563.09 230.68 557.68 C 247.54 552.27 260.06 542.64 273.70 531.70 C 287.33 520.75 298.78 513.27 311.75 500.75 C 324.72 488.23 341.84 482.84 359.00 479.00
C 359.74 478.83 360.74 478.11 362.00 478.00
C 363.97 477.83 366.03 478.00 368.00 478.00
C 371.08 477.70 375.25 477.00 379.00 477.00
C 423.20 477.00 472.71 471.99 515.00 480.00 Z"/>
</g>
<g fill="None" fill-opacity="0.0" stroke="#72CBFA" stroke-opacity="1.00" stroke-width="0.3"><path d="
M 515.00 197.00 
C 507.06 194.45 502.38 207.09 498.30 212.30 C 494.23 217.52 489.43 225.40 485.30 231.30 C 481.17 237.21 476.51 244.08 472.30 250.30 C 468.10 256.52 463.61 262.91 459.30 269.30 C 455.00 275.69 451.13 282.23 446.92 288.92 C 442.70 295.61 439.19 302.50 435.93 309.93 C 432.67 317.35 430.16 325.46 428.78 333.78 C 427.39 342.09 425.85 354.85 427.67 363.33 C 429.50 371.80 430.56 381.32 434.23 388.77 C 437.90 396.22 441.00 402.67 446.25 408.75 C 451.49 414.83 456.41 419.53 462.77 424.23 C 469.13 428.93 476.21 432.41 483.98 435.02 C 491.74 437.64 501.37 439.51 510.00 440.00 C 518.63 440.49 529.97 438.25 537.93 435.93 C 545.89 433.60 553.07 430.24 559.77 425.77 C 566.47 421.30 571.14 416.81 576.75 410.75 C 582.36 404.70 585.57 398.60 589.08 391.08 C 592.58 383.55 595.15 375.21 596.67 366.67 C 598.19 358.13 598.24 345.71 596.93 337.07 C 595.61 328.44 592.61 320.86 589.98 313.03 C 587.34 305.19 583.27 298.58 579.31 291.70 C 575.34 284.81 571.29 278.44 566.92 272.08 C 562.55 265.72 558.32 259.17 553.92 253.08 C 549.52 247.00 545.54 239.64 540.92 234.08 C 536.30 228.52 532.89 219.63 527.92 215.08 C 522.95 210.53 521.26 199.01 515.00 197.00 Z"/>
</g>
<g fill="None" fill-opacity="0.0" stroke="#73CCFB" stroke-opacity="1.00" stroke-width="0.3"><path d="
M 690.00 259.00 
C 683.63 256.57 684.16 272.99 681.93 276.93 C 679.70 280.86 677.62 289.42 673.25 293.25 C 668.89 297.09 666.26 303.45 659.70 305.69 C 653.13 307.94 650.48 313.01 641.67 312.67 C 632.86 312.33 630.19 320.45 639.93 321.07 C 649.66 321.70 651.01 325.06 658.30 327.70 C 665.60 330.33 667.22 335.34 672.25 339.75 C 677.28 344.16 678.03 351.07 681.22 355.78 C 684.41 360.49 681.60 372.62 687.32 374.66 C 693.04 376.71 693.13 361.40 695.07 357.07 C 697.01 352.75 699.62 345.03 703.70 340.70 C 707.78 336.36 710.78 330.95 717.31 328.31 C 723.83 325.66 727.04 321.72 735.93 321.93 C 744.81 322.14 746.43 312.86 737.07 312.93 C 727.72 313.00 725.72 308.60 718.75 306.25 C 711.77 303.91 710.24 298.01 704.75 294.25 C 699.27 290.48 699.35 282.25 695.92 278.08 C 692.49 273.90 694.90 260.87 690.00 259.00 Z"/>
</g>
<g fill="None" fill-opacity="0.0" stroke="#72CCFB" stroke-opacity="1.00" stroke-width="0.3"><path d="
M 361.00 362.00 
C 336.98 358.10 318.06 382.43 327.08 403.92 C 336.09 425.42 363.85 427.88 378.25 411.25 C 392.64 394.61 383.08 365.59 361.00 362.00 Z"/>
</g>
<g fill="None" fill-opacity="0.0" stroke="#3B8DC1" stroke-opacity="1.00" stroke-width="0.3"><path d="
M 368.00 478.00 
C 370.32 478.00 372.68 478.13 375.00 478.00
C 376.59 477.91 378.03 477.17 379.00 477.00
C 375.25 477.00 371.08 477.70 368.00 478.00 Z"/>
</g>
<g fill="None" fill-opacity="0.0" stroke="#00599D" stroke-opacity="1.00" stroke-width="0.3"><path d="
M 375.00 478.00 
C 370.78 478.75 366.02 478.21 362.00 478.00
C 360.74 478.11 359.74 478.83 359.00 479.00
C 351.55 483.57 334.26 484.20 325.25 492.25 C 316.24 500.31 306.19 506.10 297.25 514.25 C 288.31 522.40 279.41 528.50 269.92 535.92 C 260.42 543.33 250.73 550.44 239.77 555.77 C 228.81 561.10 216.20 561.43 208.25 573.25 C 200.29 585.06 201.62 602.14 202.00 617.00 C 202.38 631.86 201.12 651.14 202.00 665.00
C 205.42 679.47 216.47 690.04 231.00 693.00
C 235.06 693.15 248.45 690.21 252.22 693.78 C 255.99 697.35 255.08 706.86 258.77 711.23 C 262.46 715.60 263.54 721.89 268.25 725.75 C 272.96 729.61 275.73 734.19 281.08 736.92 C 286.43 739.65 291.10 743.51 297.22 744.78 C 303.34 746.05 311.60 748.08 318.00 748.00 C 324.41 747.91 332.74 746.33 338.67 744.67 C 344.60 743.01 349.63 739.73 354.70 736.70 C 359.76 733.66 362.87 729.21 367.25 725.25 C 371.62 721.29 374.28 715.91 376.92 710.92 C 379.57 705.94 381.56 697.13 383.00 697.00
C 383.25 696.28 384.08 696.28 384.00 695.00
C 383.97 694.50 384.00 694.00 384.00 694.00
C 388.56 689.28 401.03 694.45 408.00 693.00 C 414.97 691.55 425.16 693.63 433.00 693.00 C 440.84 692.37 450.80 693.30 459.00 693.00 C 467.20 692.70 475.63 693.13 484.00 693.00 C 492.37 692.87 501.55 693.06 510.00 693.00 C 518.45 692.94 526.51 693.03 535.00 693.00 C 543.49 692.97 552.49 693.01 561.00 693.00 C 569.51 692.99 577.47 693.01 586.00 693.00 C 594.53 692.99 603.44 693.00 612.00 693.00
C 611.17 694.75 608.56 693.66 607.00 694.00
C 607.00 694.00 607.00 695.00 607.00 695.00
C 608.84 695.00 611.21 694.60 613.00 695.00
C 616.94 695.88 618.36 712.08 623.75 717.25 C 629.15 722.41 632.96 732.09 641.08 735.92 C 649.20 739.75 656.89 745.69 666.67 746.33 C 676.45 746.97 690.27 747.32 699.00 746.00
C 704.99 744.18 710.67 741.44 716.00 738.00
C 731.12 728.58 742.19 712.32 745.00 695.00
C 760.51 695.48 781.40 695.94 791.08 682.08 C 800.76 668.22 799.57 647.85 797.00 632.00
C 796.96 633.00 797.03 634.00 797.00 635.00
C 795.31 620.22 788.14 605.78 776.75 595.25 C 765.36 584.71 748.53 581.23 737.00 577.00
C 736.06 576.71 736.58 575.90 735.00 576.00
C 731.10 580.03 718.98 572.81 712.98 573.02 C 706.97 573.24 697.21 569.22 690.78 568.22 C 684.35 567.22 674.19 565.73 667.99 564.01 C 661.80 562.29 650.79 562.08 648.00 559.00
C 647.55 558.87 646.78 558.20 646.00 558.00
C 633.84 558.67 621.02 549.57 610.75 542.25 C 600.49 534.92 590.08 527.91 580.30 519.70 C 570.52 511.48 560.23 504.84 550.25 496.75 C 540.28 488.65 524.40 483.65 515.00 480.00
C 472.71 471.99 423.20 477.00 379.00 477.00
C 378.03 477.17 376.59 477.91 375.00 478.00
M 420.00 544.00 
C 420.62 548.97 421.42 553.97 422.00 559.00
C 422.17 560.45 422.84 562.11 423.00 563.00
C 425.48 569.02 417.06 568.13 410.00 568.00 C 402.94 567.87 395.32 568.05 388.00 568.00 C 380.68 567.95 372.43 568.03 365.00 568.00 C 357.57 567.97 350.49 568.01 343.00 568.00 C 335.51 567.99 327.54 568.01 320.00 568.00
C 320.53 566.40 322.75 567.27 324.00 567.00
C 324.04 567.00 324.00 566.00 324.00 566.00
C 311.95 566.00 307.45 560.75 314.25 552.25 C 321.05 543.75 323.24 542.43 329.25 535.25 C 335.26 528.06 339.10 525.79 344.75 518.75 C 350.40 511.72 357.17 508.25 365.00 506.00
C 372.02 503.58 383.57 504.26 394.00 504.00 C 404.43 503.74 417.69 501.44 417.93 514.07 C 418.16 526.70 420.20 532.67 420.00 544.00
M 586.00 564.00 
C 583.25 566.75 576.11 564.72 571.93 565.93 C 567.75 567.13 559.55 566.00 555.00 566.00
C 540.67 566.00 526.33 566.00 512.00 566.00
C 512.04 566.00 512.00 567.00 512.00 567.00
C 520.67 567.00 529.33 567.00 538.00 567.00
C 527.26 569.75 516.71 566.77 505.00 568.00 C 493.29 569.23 482.18 566.06 470.00 568.00 C 457.82 569.94 449.56 565.83 450.67 553.33 C 451.78 540.83 444.63 534.33 448.00 523.00
C 447.55 519.54 444.67 511.16 446.00 508.00
C 446.94 505.77 448.18 505.68 451.00 506.00
C 450.94 505.99 451.00 505.00 451.00 505.00
C 450.03 504.84 448.98 505.13 448.00 505.00
C 473.97 502.63 513.15 500.19 533.08 517.92 C 553.01 535.64 571.37 544.92 586.00 564.00
M 324.00 718.00 
C 299.31 723.20 282.00 701.93 282.00 679.00
C 281.75 680.41 280.91 683.76 280.00 685.00
C 277.38 652.21 316.71 633.24 341.23 652.77 C 365.75 672.30 354.22 716.47 324.00 718.00
M 683.00 718.00 
C 680.74 718.17 678.26 718.14 676.00 718.00
C 648.96 720.11 632.15 684.95 646.92 661.92 C 661.70 638.90 695.48 638.76 710.75 661.25 C 726.03 683.73 709.55 719.63 683.00 718.00 Z"/>
</g>
<g fill="None" fill-opacity="0.0" stroke="#003384" stroke-opacity="1.00" stroke-width="0.3"><path d="
M 375.00 478.00 
C 372.68 478.13 370.32 478.00 368.00 478.00
C 366.03 478.00 363.97 477.83 362.00 478.00
C 366.02 478.21 370.78 478.75 375.00 478.00 Z"/>
</g>
<g fill="None" fill-opacity="0.0" stroke="#05438F" stroke-opacity="1.00" stroke-width="0.3"><path d="
M 202.00 665.00 
C 201.12 651.14 202.38 631.86 202.00 617.00 C 201.62 602.14 200.29 585.06 208.25 573.25 C 216.20 561.43 228.81 561.10 239.77 555.77 C 250.73 550.44 260.42 543.33 269.92 535.92 C 279.41 528.50 288.31 522.40 297.25 514.25 C 306.19 506.10 316.24 500.31 325.25 492.25 C 334.26 484.20 351.55 483.57 359.00 479.00
C 341.84 482.84 324.72 488.23 311.75 500.75 C 298.78 513.27 287.33 520.75 273.70 531.70 C 260.06 542.64 247.54 552.27 230.68 557.68 C 213.81 563.09 198.00 576.13 201.00 597.00 C 204.00 617.87 197.11 644.31 202.00 665.00 Z"/>
</g>
<g fill="None" fill-opacity="0.0" stroke="#06448F" stroke-opacity="1.00" stroke-width="0.3"><path d="
M 646.00 558.00 
C 595.88 545.24 566.03 489.67 515.00 480.00
C 524.40 483.65 540.28 488.65 550.25 496.75 C 560.23 504.84 570.52 511.48 580.30 519.70 C 590.08 527.91 600.49 534.92 610.75 542.25 C 621.02 549.57 633.84 558.67 646.00 558.00 Z"/>
</g>
<g fill="None" fill-opacity="0.0" stroke="#01428A" stroke-opacity="1.00" stroke-width="0.3"><path d="
M 365.00 506.00 
C 365.46 505.87 366.77 506.25 367.00 506.00
C 367.24 505.74 369.61 506.00 370.00 506.00
C 372.00 506.00 374.00 506.00 376.00 506.00
C 385.69 505.06 402.69 502.25 412.00 506.00
C 415.18 507.28 413.64 505.83 415.00 509.00
C 419.21 518.81 418.64 533.05 420.00 544.00
C 420.20 532.67 418.16 526.70 417.93 514.07 C 417.69 501.44 404.43 503.74 394.00 504.00 C 383.57 504.26 372.02 503.58 365.00 506.00 Z"/>
</g>
<g fill="None" fill-opacity="0.0" stroke="#02438C" stroke-opacity="1.00" stroke-width="0.3"><path d="
M 451.00 505.00 
C 466.07 503.61 483.72 504.49 498.00 506.00
C 499.66 506.00 501.34 505.92 503.00 506.00
C 520.68 506.91 534.60 520.57 547.75 531.25 C 560.90 541.93 574.33 552.03 586.00 564.00
C 571.37 544.92 553.01 535.64 533.08 517.92 C 513.15 500.19 473.97 502.63 448.00 505.00
C 448.98 505.13 450.03 504.84 451.00 505.00 Z"/>
</g>
<g fill="None" fill-opacity="0.0" stroke="#277FBD" stroke-opacity="1.00" stroke-width="0.3"><path d="
M 376.00 506.00 
C 386.89 506.00 401.48 503.39 412.00 506.00
C 402.69 502.25 385.69 505.06 376.00 506.00 Z"/>
</g>
<g fill="None" fill-opacity="0.0" stroke="#2E87C4" stroke-opacity="1.00" stroke-width="0.3"><path d="
M 451.00 506.00 
C 466.38 507.39 482.55 506.00 498.00 506.00
C 483.72 504.49 466.07 503.61 451.00 505.00
C 451.00 505.00 450.94 505.99 451.00 506.00 Z"/>
</g>
<g fill="None" fill-opacity="0.0" stroke="#89E0F9" stroke-opacity="1.00" stroke-width="0.3"><path d="
M 324.00 566.00 
C 357.00 566.00 390.00 566.00 423.00 566.00
C 423.23 565.53 423.09 563.53 423.00 563.00
C 422.84 562.11 422.17 560.45 422.00 559.00
C 421.93 560.23 420.00 563.05 421.00 565.00
C 410.34 565.40 400.77 564.47 390.00 565.00 C 379.23 565.53 369.04 564.00 358.00 565.00 C 346.96 566.00 337.56 562.88 326.00 565.00 C 314.44 567.12 308.92 558.95 316.25 551.25 C 323.59 543.56 325.57 541.47 331.75 534.75 C 337.94 528.03 341.02 524.51 347.25 518.25 C 353.47 511.99 359.51 506.55 369.00 508.00
C 368.92 506.74 366.94 507.44 367.00 506.00
C 366.77 506.25 365.46 505.87 365.00 506.00
C 357.17 508.25 350.40 511.72 344.75 518.75 C 339.10 525.79 335.26 528.06 329.25 535.25 C 323.24 542.43 321.05 543.75 314.25 552.25 C 307.45 560.75 311.95 566.00 324.00 566.00 Z"/>
</g>
<g fill="None" fill-opacity="0.0" stroke="#70CAF9" stroke-opacity="1.00" stroke-width="0.3"><path d="
M 422.00 559.00 
C 421.42 553.97 420.62 548.97 420.00 544.00
C 418.64 533.05 419.21 518.81 415.00 509.00
C 415.63 510.10 412.52 508.44 414.00 507.00
C 399.50 506.33 383.68 508.33 370.00 506.00
C 369.61 506.00 367.24 505.74 367.00 506.00
C 366.94 507.44 368.92 506.74 369.00 508.00
C 359.51 506.55 353.47 511.99 347.25 518.25 C 341.02 524.51 337.94 528.03 331.75 534.75 C 325.57 541.47 323.59 543.56 316.25 551.25 C 308.92 558.95 314.44 567.12 326.00 565.00 C 337.56 562.88 346.96 566.00 358.00 565.00 C 369.04 564.00 379.23 565.53 390.00 565.00 C 400.77 564.47 410.34 565.40 421.00 565.00
C 420.00 563.05 421.93 560.23 422.00 559.00 Z"/>
</g>
<g fill="None" fill-opacity="0.0" stroke="#97ECFE" stroke-opacity="1.00" stroke-width="0.3"><path d="
M 415.00 509.00 
C 413.64 505.83 415.18 507.28 412.00 506.00
C 401.48 503.39 386.89 506.00 376.00 506.00
C 374.00 506.00 372.00 506.00 370.00 506.00
C 383.68 508.33 399.50 506.33 414.00 507.00
C 412.52 508.44 415.63 510.10 415.00 509.00 Z"/>
</g>
<g fill="None" fill-opacity="0.0" stroke="#97EDFE" stroke-opacity="1.00" stroke-width="0.3"><path d="
M 446.00 508.00 
C 448.53 504.22 459.12 507.71 464.00 507.00 C 468.88 506.29 478.40 506.79 484.00 507.00 C 489.60 507.21 498.04 506.14 503.00 506.00
C 501.34 505.92 499.66 506.00 498.00 506.00
C 482.55 506.00 466.38 507.39 451.00 506.00
C 448.18 505.68 446.94 505.77 446.00 508.00 Z"/>
</g>
<g fill="None" fill-opacity="0.0" stroke="#70CAF9" stroke-opacity="1.00" stroke-width="0.3"><path d="
M 446.00 508.00 
C 444.67 511.16 447.55 519.54 448.00 523.00
C 449.51 534.60 451.66 546.90 453.00 558.00
C 451.81 554.61 456.00 562.70 455.00 565.00
C 488.17 565.67 522.65 563.67 555.00 566.00
C 559.55 566.00 567.75 567.13 571.93 565.93 C 576.11 564.72 583.25 566.75 586.00 564.00
C 574.33 552.03 560.90 541.93 547.75 531.25 C 534.60 520.57 520.68 506.91 503.00 506.00
C 498.04 506.14 489.60 507.21 484.00 507.00 C 478.40 506.79 468.88 506.29 464.00 507.00 C 459.12 507.71 448.53 504.22 446.00 508.00 Z"/>
</g>
<g fill="None" fill-opacity="0.0" stroke="#014188" stroke-opacity="1.00" stroke-width="0.3"><path d="
M 512.00 567.00 
C 503.17 567.00 492.66 567.91 484.00 567.00 C 475.34 566.09 463.31 569.78 456.00 566.00
C 452.06 563.96 453.53 562.39 453.00 558.00
C 451.66 546.90 449.51 534.60 448.00 523.00
C 444.63 534.33 451.78 540.83 450.67 553.33 C 449.56 565.83 457.82 569.94 470.00 568.00 C 482.18 566.06 493.29 569.23 505.00 568.00 C 516.71 566.77 527.26 569.75 538.00 567.00
C 529.33 567.00 520.67 567.00 512.00 567.00 Z"/>
</g>
<g fill="None" fill-opacity="0.0" stroke="#94EAFE" stroke-opacity="1.00" stroke-width="0.3"><path d="
M 453.00 558.00 
C 453.53 562.39 452.06 563.96 456.00 566.00
C 464.23 568.78 475.25 564.96 484.00 566.00 C 492.76 567.04 503.10 566.00 512.00 566.00
C 526.33 566.00 540.67 566.00 555.00 566.00
C 522.65 563.67 488.17 565.67 455.00 565.00
C 456.00 562.70 451.81 554.61 453.00 558.00 Z"/>
</g>
<g fill="None" fill-opacity="0.0" stroke="#04438E" stroke-opacity="1.00" stroke-width="0.3"><path d="
M 735.00 576.00 
C 735.00 576.00 734.50 575.97 734.00 576.00
C 732.47 576.10 732.88 575.22 732.00 575.00
C 720.76 573.68 710.09 570.84 699.00 569.00
C 698.03 568.84 697.53 568.13 697.00 568.00
C 690.79 567.27 685.08 566.01 679.00 565.00
C 677.86 564.81 677.70 564.22 677.00 564.00
C 670.97 563.00 664.91 562.36 659.00 561.00
C 658.20 560.82 657.44 560.12 657.00 560.00
C 656.01 559.88 654.99 560.12 654.00 560.00
C 652.76 559.85 652.75 559.22 652.00 559.00
C 650.76 558.83 649.20 559.36 648.00 559.00
C 650.79 562.08 661.80 562.29 667.99 564.01 C 674.19 565.73 684.35 567.22 690.78 568.22 C 697.21 569.22 706.97 573.24 712.98 573.02 C 718.98 572.81 731.10 580.03 735.00 576.00 Z"/>
</g>
<g fill="None" fill-opacity="0.0" stroke="#74B0D9" stroke-opacity="1.00" stroke-width="0.3"><path d="
M 654.00 560.00 
C 653.35 559.82 653.12 559.16 652.00 559.00
C 652.75 559.22 652.76 559.85 654.00 560.00 Z"/>
</g>
<g fill="None" fill-opacity="0.0" stroke="#77B1D8" stroke-opacity="1.00" stroke-width="0.3"><path d="
M 659.00 561.00 
C 658.07 560.63 658.42 560.17 657.00 560.00
C 657.44 560.12 658.20 560.82 659.00 561.00 Z"/>
</g>
<g fill="None" fill-opacity="0.0" stroke="#003881" stroke-opacity="1.00" stroke-width="0.3"><path d="
M 423.00 563.00 
C 423.09 563.53 423.23 565.53 423.00 566.00
C 421.10 569.85 408.80 565.90 404.00 567.00 C 399.20 568.10 389.81 566.47 384.00 567.00 C 378.19 567.53 370.26 566.67 364.00 567.00 C 357.74 567.33 350.44 566.66 344.00 567.00 C 337.56 567.34 330.47 566.43 324.00 567.00
C 322.75 567.27 320.53 566.40 320.00 568.00
C 327.54 568.01 335.51 567.99 343.00 568.00 C 350.49 568.01 357.57 567.97 365.00 568.00 C 372.43 568.03 380.68 567.95 388.00 568.00 C 395.32 568.05 402.94 567.87 410.00 568.00 C 417.06 568.13 425.48 569.02 423.00 563.00 Z"/>
</g>
<g fill="None" fill-opacity="0.0" stroke="#63A4C7" stroke-opacity="1.00" stroke-width="0.3"><path d="
M 679.00 565.00 
C 678.30 564.78 678.14 564.19 677.00 564.00
C 677.70 564.22 677.86 564.81 679.00 565.00 Z"/>
</g>
<g fill="None" fill-opacity="0.0" stroke="#348FC8" stroke-opacity="1.00" stroke-width="0.3"><path d="
M 324.00 567.00 
C 330.47 566.43 337.56 567.34 344.00 567.00 C 350.44 566.66 357.74 567.33 364.00 567.00 C 370.26 566.67 378.19 567.53 384.00 567.00 C 389.81 566.47 399.20 568.10 404.00 567.00 C 408.80 565.90 421.10 569.85 423.00 566.00
C 390.00 566.00 357.00 566.00 324.00 566.00
C 324.00 566.00 324.04 567.00 324.00 567.00 Z"/>
</g>
<g fill="None" fill-opacity="0.0" stroke="#247EBB" stroke-opacity="1.00" stroke-width="0.3"><path d="
M 512.00 567.00 
C 512.00 567.00 512.04 566.00 512.00 566.00
C 503.10 566.00 492.76 567.04 484.00 566.00 C 475.25 564.96 464.23 568.78 456.00 566.00
C 463.31 569.78 475.34 566.09 484.00 567.00 C 492.66 567.91 503.17 567.00 512.00 567.00 Z"/>
</g>
<g fill="None" fill-opacity="0.0" stroke="#6AB2D8" stroke-opacity="1.00" stroke-width="0.3"><path d="
M 699.00 569.00 
C 698.21 568.75 698.28 568.15 697.00 568.00
C 697.53 568.13 698.03 568.84 699.00 569.00 Z"/>
</g>
<g fill="None" fill-opacity="0.0" stroke="#75B0D8" stroke-opacity="1.00" stroke-width="0.3"><path d="
M 734.00 576.00 
C 732.94 575.29 733.58 575.19 732.00 575.00
C 732.88 575.22 732.47 576.10 734.00 576.00 Z"/>
</g>
<g fill="None" fill-opacity="0.0" stroke="#06448F" stroke-opacity="1.00" stroke-width="0.3"><path d="
M 797.00 632.00 
C 794.54 616.82 789.06 604.53 777.25 593.75 C 765.43 582.98 751.34 581.47 737.00 577.00
C 748.53 581.23 765.36 584.71 776.75 595.25 C 788.14 605.78 795.31 620.22 797.00 635.00
C 797.03 634.00 796.96 633.00 797.00 632.00 Z"/>
</g>
<g fill="None" fill-opacity="0.0" stroke="#054793" stroke-opacity="1.00" stroke-width="0.3"><path d="
M 282.00 679.00 
C 282.00 678.03 281.88 676.96 282.00 676.00
C 282.16 674.67 282.71 674.84 283.00 674.00
C 288.12 646.93 323.81 636.09 343.25 656.75 C 362.69 677.42 351.73 712.16 324.00 718.00
C 354.22 716.47 365.75 672.30 341.23 652.77 C 316.71 633.24 277.38 652.21 280.00 685.00
C 280.91 683.76 281.75 680.41 282.00 679.00 Z"/>
</g>
<g fill="None" fill-opacity="0.0" stroke="#034591" stroke-opacity="1.00" stroke-width="0.3"><path d="
M 676.00 718.00 
C 631.87 715.19 633.60 646.58 678.00 645.00 C 722.41 643.43 728.03 714.60 683.00 718.00
C 709.55 719.63 726.03 683.73 710.75 661.25 C 695.48 638.76 661.70 638.90 646.92 661.92 C 632.15 684.95 648.96 720.11 676.00 718.00 Z"/>
</g>
<g fill="None" fill-opacity="0.0" stroke="#C6EDFE" stroke-opacity="1.00" stroke-width="0.3"><path d="
M 676.00 718.00 
C 678.26 718.14 680.74 718.17 683.00 718.00
C 728.03 714.60 722.41 643.43 678.00 645.00 C 633.60 646.58 631.87 715.19 676.00 718.00 Z"/>
</g>
<g fill="None" fill-opacity="0.0" stroke="#C6EDFE" stroke-opacity="1.00" stroke-width="0.3"><path d="
M 283.00 674.00 
C 282.82 674.95 282.15 675.46 282.00 676.00
C 281.88 676.96 282.00 678.03 282.00 679.00
C 282.00 701.93 299.31 723.20 324.00 718.00
C 351.73 712.16 362.69 677.42 343.25 656.75 C 323.81 636.09 288.12 646.93 283.00 674.00 Z"/>
</g>
<g fill="None" fill-opacity="0.0" stroke="#5CA8D2" stroke-opacity="1.00" stroke-width="0.3"><path d="
M 282.00 676.00 
C 282.15 675.46 282.82 674.95 283.00 674.00
C 282.71 674.84 282.16 674.67 282.00 676.00 Z"/>
</g>
<g fill="None" fill-opacity="0.0" stroke="#044590" stroke-opacity="1.00" stroke-width="0.3"><path d="
M 231.00 693.00 
C 237.57 693.80 244.16 694.32 251.00 694.00
C 255.10 710.65 263.80 727.19 279.00 737.00
C 286.49 741.83 294.24 745.55 303.00 747.00
C 303.86 747.14 304.58 747.91 305.00 748.00
C 323.42 749.66 341.84 748.28 357.00 737.00
C 371.14 726.49 377.68 712.64 383.00 697.00
C 381.56 697.13 379.57 705.94 376.92 710.92 C 374.28 715.91 371.62 721.29 367.25 725.25 C 362.87 729.21 359.76 733.66 354.70 736.70 C 349.63 739.73 344.60 743.01 338.67 744.67 C 332.74 746.33 324.41 747.91 318.00 748.00 C 311.60 748.08 303.34 746.05 297.22 744.78 C 291.10 743.51 286.43 739.65 281.08 736.92 C 275.73 734.19 272.96 729.61 268.25 725.75 C 263.54 721.89 262.46 715.60 258.77 711.23 C 255.08 706.86 255.99 697.35 252.22 693.78 C 248.45 690.21 235.06 693.15 231.00 693.00 Z"/>
</g>
<g fill="None" fill-opacity="0.0" stroke="#003080" stroke-opacity="1.00" stroke-width="0.3"><path d="
M 384.00 694.00 
C 412.80 691.42 443.06 694.00 472.00 694.00
C 505.67 694.00 539.33 694.00 573.00 694.00
C 584.26 694.00 595.76 694.69 607.00 694.00
C 608.56 693.66 611.17 694.75 612.00 693.00
C 603.44 693.00 594.53 692.99 586.00 693.00 C 577.47 693.01 569.51 692.99 561.00 693.00 C 552.49 693.01 543.49 692.97 535.00 693.00 C 526.51 693.03 518.45 692.94 510.00 693.00 C 501.55 693.06 492.37 692.87 484.00 693.00 C 475.63 693.13 467.20 692.70 459.00 693.00 C 450.80 693.30 440.84 692.37 433.00 693.00 C 425.16 693.63 414.97 691.55 408.00 693.00 C 401.03 694.45 388.56 689.28 384.00 694.00 Z"/>
</g>
<g fill="None" fill-opacity="0.0" stroke="#7CBFE0" stroke-opacity="1.00" stroke-width="0.3"><path d="
M 384.00 695.00 
C 412.79 697.60 443.07 695.00 472.00 695.00
C 471.96 695.00 472.00 694.00 472.00 694.00
C 443.06 694.00 412.80 691.42 384.00 694.00
C 384.00 694.00 383.97 694.50 384.00 695.00 Z"/>
</g>
<g fill="None" fill-opacity="0.0" stroke="#4092C3" stroke-opacity="1.00" stroke-width="0.3"><path d="
M 472.00 695.00 
C 505.67 695.00 539.33 695.00 573.00 695.00
C 572.96 695.00 573.00 694.00 573.00 694.00
C 539.33 694.00 505.67 694.00 472.00 694.00
C 472.00 694.00 471.96 695.00 472.00 695.00 Z"/>
</g>
<g fill="None" fill-opacity="0.0" stroke="#1E78B2" stroke-opacity="1.00" stroke-width="0.3"><path d="
M 573.00 695.00 
C 584.33 695.00 595.67 695.00 607.00 695.00
C 607.00 695.00 607.00 694.00 607.00 694.00
C 595.76 694.69 584.26 694.00 573.00 694.00
C 573.00 694.00 572.96 695.00 573.00 695.00 Z"/>
</g>
<g fill="None" fill-opacity="0.0" stroke="#034590" stroke-opacity="1.00" stroke-width="0.3"><path d="
M 613.00 695.00 
C 611.00 702.53 620.28 713.92 623.77 720.23 C 627.27 726.54 636.00 734.05 642.00 738.00
C 658.61 748.94 679.81 751.82 699.00 746.00
C 690.27 747.32 676.45 746.97 666.67 746.33 C 656.89 745.69 649.20 739.75 641.08 735.92 C 632.96 732.09 629.15 722.41 623.75 717.25 C 618.36 712.08 616.94 695.88 613.00 695.00 Z"/>
</g>
<g fill="None" fill-opacity="0.0" stroke="#EEF9FD" stroke-opacity="1.00" stroke-width="0.3"><path d="
M 383.00 697.00 
C 377.68 712.64 371.14 726.49 357.00 737.00
C 357.70 736.93 361.50 737.96 363.00 738.00
C 362.34 737.81 360.45 736.76 360.00 736.00
C 372.72 725.62 381.87 711.63 385.00 696.00
C 460.33 696.00 535.67 696.00 611.00 696.00
C 615.39 711.32 623.87 727.16 638.00 736.00
C 551.40 739.00 461.53 735.00 375.00 738.00
C 389.79 738.00 404.17 737.95 419.00 738.00 C 433.83 738.05 449.13 737.87 464.00 738.00 C 478.87 738.13 494.18 737.70 509.00 738.00 C 523.82 738.30 539.35 737.34 554.00 738.00 C 568.65 738.66 584.76 736.54 599.00 738.00 C 613.24 739.46 629.58 734.73 642.00 738.00
C 636.00 734.05 627.27 726.54 623.77 720.23 C 620.28 713.92 611.00 702.53 613.00 695.00
C 611.21 694.60 608.84 695.00 607.00 695.00
C 595.67 695.00 584.33 695.00 573.00 695.00
C 539.33 695.00 505.67 695.00 472.00 695.00
C 443.07 695.00 412.79 697.60 384.00 695.00
C 384.08 696.28 383.25 696.28 383.00 697.00 Z"/>
</g>
<g fill="None" fill-opacity="0.0" stroke="#D5F3FE" stroke-opacity="1.00" stroke-width="0.3"><path d="
M 363.00 738.00 
C 366.99 738.11 371.00 738.00 375.00 738.00
C 461.53 735.00 551.40 739.00 638.00 736.00
C 623.87 727.16 615.39 711.32 611.00 696.00
C 535.67 696.00 460.33 696.00 385.00 696.00
C 381.87 711.63 372.72 725.62 360.00 736.00
C 360.45 736.76 362.34 737.81 363.00 738.00 Z"/>
</g>
<g fill="None" fill-opacity="0.0" stroke="#A5E0FE" stroke-opacity="1.00" stroke-width="0.3"><path d="
M 716.00 738.00 
C 710.67 741.44 704.99 744.18 699.00 746.00
C 679.81 751.82 658.61 748.94 642.00 738.00
C 629.58 734.73 613.24 739.46 599.00 738.00 C 584.76 736.54 568.65 738.66 554.00 738.00 C 539.35 737.34 523.82 738.30 509.00 738.00 C 494.18 737.70 478.87 738.13 464.00 738.00 C 449.13 737.87 433.83 738.05 419.00 738.00 C 404.17 737.95 389.79 738.00 375.00 738.00
C 371.00 738.00 366.99 738.11 363.00 738.00
C 361.50 737.96 357.70 736.93 357.00 737.00
C 341.84 748.28 323.42 749.66 305.00 748.00
C 303.65 747.88 303.83 747.26 303.00 747.00
C 294.24 745.55 286.49 741.83 279.00 737.00
C 261.81 740.00 241.26 736.01 224.00 739.00
C 227.10 739.10 229.09 739.75 232.00 739.00
C 231.47 742.02 234.51 749.85 236.00 744.00
C 235.47 746.93 237.38 752.41 240.00 751.00
C 241.04 754.88 235.55 753.32 238.00 757.00
C 240.18 752.71 243.86 759.65 241.00 762.00
C 245.68 764.19 252.11 762.91 251.00 770.00
C 254.38 771.31 260.68 770.22 260.00 777.00
C 262.06 771.11 266.58 778.41 267.00 782.00
C 269.69 780.88 273.66 784.45 269.00 786.00
C 272.61 786.05 274.84 784.79 278.00 786.00
C 275.69 791.28 280.72 786.98 283.00 787.00
C 282.45 790.21 283.67 791.60 286.00 789.00
C 288.23 793.14 283.69 791.08 282.00 793.00
C 287.09 793.88 291.32 795.18 295.78 796.22 C 300.23 797.26 305.94 796.88 305.00 801.00
C 308.09 797.30 309.36 799.31 312.00 802.00
C 317.07 799.29 316.81 802.25 322.00 800.00
C 318.56 804.98 327.43 808.34 329.00 803.00
C 332.39 805.39 334.47 805.52 338.00 804.00
C 337.13 808.68 341.97 806.43 344.00 805.00
C 344.46 810.64 353.15 808.08 357.00 807.00
C 356.86 811.48 357.99 808.22 360.00 807.00
C 359.60 815.34 374.70 808.19 371.00 813.00
C 374.92 813.89 373.84 808.27 378.00 809.00
C 375.18 812.62 376.51 812.79 380.00 811.00
C 379.90 815.44 389.21 815.84 384.00 812.00
C 386.82 813.42 392.07 812.08 390.00 816.00
C 393.31 812.64 400.19 818.15 398.00 812.00
C 401.63 816.47 407.60 816.84 410.97 815.02 C 414.35 813.20 421.09 821.86 424.00 815.00
C 425.04 820.24 427.05 817.74 429.00 815.00
C 426.66 820.45 432.77 817.53 437.00 817.00 C 441.23 816.47 446.01 818.75 449.00 815.00
C 452.93 817.24 459.71 818.91 463.00 814.00
C 463.32 819.32 473.23 820.25 475.00 817.00
C 477.48 818.81 480.56 823.42 479.00 817.00
C 481.47 823.75 490.93 813.69 490.00 820.00
C 496.65 815.22 504.95 824.18 510.00 817.00
C 511.82 821.06 516.37 818.87 514.00 815.00
C 516.96 817.88 522.64 815.32 524.00 820.00
C 527.41 820.46 523.44 816.44 527.00 816.00
C 527.08 819.33 531.57 815.49 535.33 818.67 C 539.08 821.85 542.86 813.65 546.92 816.07 C 550.97 818.48 554.36 816.82 556.00 814.00
C 556.40 819.41 562.17 814.57 561.00 819.00
C 563.68 816.90 564.07 817.95 566.00 815.00
C 566.35 817.37 568.31 816.28 569.00 819.00
C 570.17 815.70 575.27 819.44 574.00 815.00
C 577.56 817.19 583.56 819.22 583.00 814.00
C 584.28 815.61 584.33 817.93 585.00 819.00
C 587.51 817.32 586.68 817.21 590.00 819.00
C 589.05 812.00 603.02 816.93 609.00 818.00
C 611.44 811.58 621.19 817.59 627.00 817.00
C 625.05 811.40 632.74 813.94 635.00 816.00
C 632.62 811.18 637.78 814.23 638.00 817.00
C 640.75 810.67 650.27 813.62 654.97 811.98 C 659.67 810.34 665.66 810.61 669.00 814.00
C 670.29 812.00 671.18 809.81 673.00 813.00
C 671.35 808.70 680.51 806.67 677.00 812.00
C 679.94 810.37 680.53 809.33 682.00 806.00
C 686.18 805.91 693.03 810.76 691.00 804.00
C 695.35 805.61 699.57 806.98 700.00 802.00
C 700.79 805.13 708.87 806.07 707.00 800.00
C 708.23 801.66 710.55 804.32 710.00 800.00
C 713.74 803.12 711.74 799.98 713.00 798.00
C 713.81 799.95 716.37 805.35 716.00 800.00
C 719.21 801.03 719.55 800.98 720.00 798.00
C 722.50 800.63 728.48 796.28 727.00 794.00
C 730.54 791.87 729.19 796.00 732.00 796.00
C 729.75 791.93 735.65 788.22 737.00 793.00
C 738.44 788.35 744.61 787.02 748.77 786.77 C 752.93 786.52 755.77 778.49 759.00 783.00
C 759.58 779.88 756.18 779.89 758.00 777.00
C 762.00 784.94 761.55 773.99 765.25 772.26 C 768.96 770.53 772.41 766.71 776.00 767.00
C 778.10 762.75 780.44 758.19 784.23 756.57 C 788.02 754.95 783.70 743.38 789.00 748.00
C 786.76 745.41 789.73 742.92 789.00 740.00
C 793.18 739.42 798.58 741.21 802.00 739.00
C 788.02 740.78 771.36 737.08 758.00 738.00 C 744.64 738.92 727.61 734.72 716.00 738.00 Z"/>
</g>
<g fill="None" fill-opacity="0.0" stroke="#3E8DC8" stroke-opacity="1.00" stroke-width="0.3"><path d="
M 305.00 748.00 
C 304.58 747.91 303.86 747.14 303.00 747.00
C 303.83 747.26 303.65 747.88 305.00 748.00 Z"/>
</g>
<g fill="#FEFEFF" fill-opacity="1.00" stroke="None">
<path d="
M 0.00 1024.00 
L 1024.00 1024.00
L 1024.00 0.00
L 0.00 0.00
L 0.00 1024.00
M 746.00 128.00 
C 773.95 130.70 806.66 133.86 830.75 149.25 C 854.83 164.65 868.66 178.07 881.31 204.69 C 893.95 231.32 898.22 261.63 898.00 294.00 C 897.78 326.37 898.12 366.22 898.00 400.00 C 897.88 433.78 898.11 471.83 898.00 506.00 C 897.89 540.17 898.17 578.22 898.00 612.00 C 897.83 645.78 898.35 685.65 898.00 718.00 C 897.65 750.35 895.88 783.96 884.02 811.03 C 872.17 838.09 861.06 853.04 836.75 869.75 C 812.45 886.47 786.95 892.39 755.78 894.78 C 724.61 897.17 684.39 895.63 651.00 896.00 C 617.61 896.37 579.10 895.87 545.00 896.00 C 510.90 896.13 472.98 896.03 439.00 896.00 C 405.02 895.97 365.97 896.21 333.00 896.00 C 300.03 895.79 262.09 896.59 232.98 889.02 C 203.86 881.46 185.98 871.95 165.75 850.25 C 145.53 828.55 137.02 808.66 131.22 778.78 C 125.42 748.90 127.19 710.17 127.00 677.00 C 126.81 643.83 127.05 605.08 127.00 571.00 C 126.95 536.92 126.94 499.15 127.00 465.00 C 127.06 430.85 126.80 392.43 127.00 359.00 C 127.20 325.57 125.48 285.34 129.78 254.78 C 134.07 224.21 141.20 202.01 160.25 179.25 C 179.30 156.49 195.55 145.85 224.22 137.22 C 252.90 128.59 288.13 128.20 321.00 128.00 C 353.87 127.80 392.79 127.84 427.00 128.00 C 461.21 128.16 498.19 127.37 533.00 128.00 C 567.81 128.63 603.95 126.48 639.00 128.00 C 674.05 129.52 711.01 124.61 746.00 128.00 Z"/>
</g>
<g fill="#D1F2FF" fill-opacity="1.00" stroke="None">
<path d="
M 746.00 128.00 
C 711.01 124.61 674.05 129.52 639.00 128.00 C 603.95 126.48 567.81 128.63 533.00 128.00 C 498.19 127.37 461.21 128.16 427.00 128.00 C 392.79 127.84 353.87 127.80 321.00 128.00 C 288.13 128.20 252.90 128.59 224.22 137.22 C 195.55 145.85 179.30 156.49 160.25 179.25 C 141.20 202.01 134.07 224.21 129.78 254.78 C 125.48 285.34 127.20 325.57 127.00 359.00 C 126.80 392.43 127.06 430.85 127.00 465.00 C 126.94 499.15 126.95 536.92 127.00 571.00 C 127.05 605.08 126.81 643.83 127.00 677.00 C 127.19 710.17 125.42 748.90 131.22 778.78 C 137.02 808.66 145.53 828.55 165.75 850.25 C 185.98 871.95 203.86 881.46 232.98 889.02 C 262.09 896.59 300.03 895.79 333.00 896.00 C 365.97 896.21 405.02 895.97 439.00 896.00 C 472.98 896.03 510.90 896.13 545.00 896.00 C 579.10 895.87 617.61 896.37 651.00 896.00 C 684.39 895.63 724.61 897.17 755.78 894.78 C 786.95 892.39 812.45 886.47 836.75 869.75 C 861.06 853.04 872.17 838.09 884.02 811.03 C 895.88 783.96 897.65 750.35 898.00 718.00 C 898.35 685.65 897.83 645.78 898.00 612.00 C 898.17 578.22 897.89 540.17 898.00 506.00 C 898.11 471.83 897.88 433.78 898.00 400.00 C 898.12 366.22 897.78 326.37 898.00 294.00 C 898.22 261.63 893.95 231.32 881.31 204.69 C 868.66 178.07 854.83 164.65 830.75 149.25 C 806.66 133.86 773.95 130.70 746.00 128.00
M 515.00 197.00 
C 521.26 199.01 522.95 210.53 527.92 215.08 C 532.89 219.63 536.30 228.52 540.92 234.08 C 545.54 239.64 549.52 247.00 553.92 253.08 C 558.32 259.17 562.55 265.72 566.92 272.08 C 571.29 278.44 575.34 284.81 579.31 291.70 C 583.27 298.58 587.34 305.19 589.98 313.03 C 592.61 320.86 595.61 328.44 596.93 337.07 C 598.24 345.71 598.19 358.13 596.67 366.67 C 595.15 375.21 592.58 383.55 589.08 391.08 C 585.57 398.60 582.36 404.70 576.75 410.75 C 571.14 416.81 566.47 421.30 559.77 425.77 C 553.07 430.24 545.89 433.60 537.93 435.93 C 529.97 438.25 518.63 440.49 510.00 440.00 C 501.37 439.51 491.74 437.64 483.98 435.02 C 476.21 432.41 469.13 428.93 462.77 424.23 C 456.41 419.53 451.49 414.83 446.25 408.75 C 441.00 402.67 437.90 396.22 434.23 388.77 C 430.56 381.32 429.50 371.80 427.67 363.33 C 425.85 354.85 427.39 342.09 428.78 333.78 C 430.16 325.46 432.67 317.35 435.93 309.93 C 439.19 302.50 442.70 295.61 446.92 288.92 C 451.13 282.23 455.00 275.69 459.30 269.30 C 463.61 262.91 468.10 256.52 472.30 250.30 C 476.51 244.08 481.17 237.21 485.30 231.30 C 489.43 225.40 494.23 217.52 498.30 212.30 C 502.38 207.09 507.06 194.45 515.00 197.00
M 690.00 259.00 
C 694.90 260.87 692.49 273.90 695.92 278.08 C 699.35 282.25 699.27 290.48 704.75 294.25 C 710.24 298.01 711.77 303.91 718.75 306.25 C 725.72 308.60 727.72 313.00 737.07 312.93 C 746.43 312.86 744.81 322.14 735.93 321.93 C 727.04 321.72 723.83 325.66 717.31 328.31 C 710.78 330.95 707.78 336.36 703.70 340.70 C 699.62 345.03 697.01 352.75 695.07 357.07 C 693.13 361.40 693.04 376.71 687.32 374.66 C 681.60 372.62 684.41 360.49 681.22 355.78 C 678.03 351.07 677.28 344.16 672.25 339.75 C 667.22 335.34 665.60 330.33 658.30 327.70 C 651.01 325.06 649.66 321.70 639.93 321.07 C 630.19 320.45 632.86 312.33 641.67 312.67 C 650.48 313.01 653.13 307.94 659.70 305.69 C 666.26 303.45 668.89 297.09 673.25 293.25 C 677.62 289.42 679.70 280.86 681.93 276.93 C 684.16 272.99 683.63 256.57 690.00 259.00
M 361.00 362.00 
C 383.08 365.59 392.64 394.61 378.25 411.25 C 363.85 427.88 336.09 425.42 327.08 403.92 C 318.06 382.43 336.98 358.10 361.00 362.00
M 515.00 480.00 
C 566.03 489.67 595.88 545.24 646.00 558.00
C 646.78 558.20 647.55 558.87 648.00 559.00
C 649.20 559.36 650.76 558.83 652.00 559.00
C 653.12 559.16 653.35 559.82 654.00 560.00
C 654.99 560.12 656.01 559.88 657.00 560.00
C 658.42 560.17 658.07 560.63 659.00 561.00
C 664.91 562.36 670.97 563.00 677.00 564.00
C 678.14 564.19 678.30 564.78 679.00 565.00
C 685.08 566.01 690.79 567.27 697.00 568.00
C 698.28 568.15 698.21 568.75 699.00 569.00
C 710.09 570.84 720.76 573.68 732.00 575.00
C 733.58 575.19 732.94 575.29 734.00 576.00
C 734.50 575.97 735.00 576.00 735.00 576.00
C 736.58 575.90 736.06 576.71 737.00 577.00
C 751.34 581.47 765.43 582.98 777.25 593.75 C 789.06 604.53 794.54 616.82 797.00 632.00
C 799.57 647.85 800.76 668.22 791.08 682.08 C 781.40 695.94 760.51 695.48 745.00 695.00
C 742.19 712.32 731.12 728.58 716.00 738.00
C 727.61 734.72 744.64 738.92 758.00 738.00 C 771.36 737.08 788.02 740.78 802.00 739.00
C 798.58 741.21 793.18 739.42 789.00 740.00
C 789.73 742.92 786.76 745.41 789.00 748.00
C 783.70 743.38 788.02 754.95 784.23 756.57 C 780.44 758.19 778.10 762.75 776.00 767.00
C 772.41 766.71 768.96 770.53 765.25 772.26 C 761.55 773.99 762.00 784.94 758.00 777.00
C 756.18 779.89 759.58 779.88 759.00 783.00
C 755.77 778.49 752.93 786.52 748.77 786.77 C 744.61 787.02 738.44 788.35 737.00 793.00
C 735.65 788.22 729.75 791.93 732.00 796.00
C 729.19 796.00 730.54 791.87 727.00 794.00
C 728.48 796.28 722.50 800.63 720.00 798.00
C 719.55 800.98 719.21 801.03 716.00 800.00
C 716.37 805.35 713.81 799.95 713.00 798.00
C 711.74 799.98 713.74 803.12 710.00 800.00
C 710.55 804.32 708.23 801.66 707.00 800.00
C 708.87 806.07 700.79 805.13 700.00 802.00
C 699.57 806.98 695.35 805.61 691.00 804.00
C 693.03 810.76 686.18 805.91 682.00 806.00
C 680.53 809.33 679.94 810.37 677.00 812.00
C 680.51 806.67 671.35 808.70 673.00 813.00
C 671.18 809.81 670.29 812.00 669.00 814.00
C 665.66 810.61 659.67 810.34 654.97 811.98 C 650.27 813.62 640.75 810.67 638.00 817.00
C 637.78 814.23 632.62 811.18 635.00 816.00
C 632.74 813.94 625.05 811.40 627.00 817.00
C 621.19 817.59 611.44 811.58 609.00 818.00
C 603.02 816.93 589.05 812.00 590.00 819.00
C 586.68 817.21 587.51 817.32 585.00 819.00
C 584.33 817.93 584.28 815.61 583.00 814.00
C 583.56 819.22 577.56 817.19 574.00 815.00
C 575.27 819.44 570.17 815.70 569.00 819.00
C 568.31 816.28 566.35 817.37 566.00 815.00
C 564.07 817.95 563.68 816.90 561.00 819.00
C 562.17 814.57 556.40 819.41 556.00 814.00
C 554.36 816.82 550.97 818.48 546.92 816.07 C 542.86 813.65 539.08 821.85 535.33 818.67 C 531.57 815.49 527.08 819.33 527.00 816.00
C 523.44 816.44 527.41 820.46 524.00 820.00
C 522.64 815.32 516.96 817.88 514.00 815.00
C 516.37 818.87 511.82 821.06 510.00 817.00
C 504.95 824.18 496.65 815.22 490.00 820.00
C 490.93 813.69 481.47 823.75 479.00 817.00
C 480.56 823.42 477.48 818.81 475.00 817.00
C 473.23 820.25 463.32 819.32 463.00 814.00
C 459.71 818.91 452.93 817.24 449.00 815.00
C 446.01 818.75 441.23 816.47 437.00 817.00 C 432.77 817.53 426.66 820.45 429.00 815.00
C 427.05 817.74 425.04 820.24 424.00 815.00
C 421.09 821.86 414.35 813.20 410.97 815.02 C 407.60 816.84 401.63 816.47 398.00 812.00
C 400.19 818.15 393.31 812.64 390.00 816.00
C 392.07 812.08 386.82 813.42 384.00 812.00
C 389.21 815.84 379.90 815.44 380.00 811.00
C 376.51 812.79 375.18 812.62 378.00 809.00
C 373.84 808.27 374.92 813.89 371.00 813.00
C 374.70 808.19 359.60 815.34 360.00 807.00
C 357.99 808.22 356.86 811.48 357.00 807.00
C 353.15 808.08 344.46 810.64 344.00 805.00
C 341.97 806.43 337.13 808.68 338.00 804.00
C 334.47 805.52 332.39 805.39 329.00 803.00
C 327.43 808.34 318.56 804.98 322.00 800.00
C 316.81 802.25 317.07 799.29 312.00 802.00
C 309.36 799.31 308.09 797.30 305.00 801.00
C 305.94 796.88 300.23 797.26 295.78 796.22 C 291.32 795.18 287.09 793.88 282.00 793.00
C 283.69 791.08 288.23 793.14 286.00 789.00
C 283.67 791.60 282.45 790.21 283.00 787.00
C 280.72 786.98 275.69 791.28 278.00 786.00
C 274.84 784.79 272.61 786.05 269.00 786.00
C 273.66 784.45 269.69 780.88 267.00 782.00
C 266.58 778.41 262.06 771.11 260.00 777.00
C 260.68 770.22 254.38 771.31 251.00 770.00
C 252.11 762.91 245.68 764.19 241.00 762.00
C 243.86 759.65 240.18 752.71 238.00 757.00
C 235.55 753.32 241.04 754.88 240.00 751.00
C 237.38 752.41 235.47 746.93 236.00 744.00
C 234.51 749.85 231.47 742.02 232.00 739.00
C 229.09 739.75 227.10 739.10 224.00 739.00
C 241.26 736.01 261.81 740.00 279.00 737.00
C 263.80 727.19 255.10 710.65 251.00 694.00
C 244.16 694.32 237.57 693.80 231.00 693.00
C 216.47 690.04 205.42 679.47 202.00 665.00
C 197.11 644.31 204.00 617.87 201.00 597.00 C 198.00 576.13 213.81 563.09 230.68 557.68 C 247.54 552.27 260.06 542.64 273.70 531.70 C 287.33 520.75 298.78 513.27 311.75 500.75 C 324.72 488.23 341.84 482.84 359.00 479.00
C 359.74 478.83 360.74 478.11 362.00 478.00
C 363.97 477.83 366.03 478.00 368.00 478.00
C 371.08 477.70 375.25 477.00 379.00 477.00
C 423.20 477.00 472.71 471.99 515.00 480.00 Z"/>
</g>
<g fill="#72CBFA" fill-opacity="1.00" stroke="None">
<path d="
M 515.00 197.00 
C 507.06 194.45 502.38 207.09 498.30 212.30 C 494.23 217.52 489.43 225.40 485.30 231.30 C 481.17 237.21 476.51 244.08 472.30 250.30 C 468.10 256.52 463.61 262.91 459.30 269.30 C 455.00 275.69 451.13 282.23 446.92 288.92 C 442.70 295.61 439.19 302.50 435.93 309.93 C 432.67 317.35 430.16 325.46 428.78 333.78 C 427.39 342.09 425.85 354.85 427.67 363.33 C 429.50 371.80 430.56 381.32 434.23 388.77 C 437.90 396.22 441.00 402.67 446.25 408.75 C 451.49 414.83 456.41 419.53 462.77 424.23 C 469.13 428.93 476.21 432.41 483.98 435.02 C 491.74 437.64 501.37 439.51 510.00 440.00 C 518.63 440.49 529.97 438.25 537.93 435.93 C 545.89 433.60 553.07 430.24 559.77 425.77 C 566.47 421.30 571.14 416.81 576.75 410.75 C 582.36 404.70 585.57 398.60 589.08 391.08 C 592.58 383.55 595.15 375.21 596.67 366.67 C 598.19 358.13 598.24 345.71 596.93 337.07 C 595.61 328.44 592.61 320.86 589.98 313.03 C 587.34 305.19 583.27 298.58 579.31 291.70 C 575.34 284.81 571.29 278.44 566.92 272.08 C 562.55 265.72 558.32 259.17 553.92 253.08 C 549.52 247.00 545.54 239.64 540.92 234.08 C 536.30 228.52 532.89 219.63 527.92 215.08 C 522.95 210.53 521.26 199.01 515.00 197.00 Z"/>
</g>
<g fill="#73CCFB" fill-opacity="1.00" stroke="None">
<path d="
M 690.00 259.00 
C 683.63 256.57 684.16 272.99 681.93 276.93 C 679.70 280.86 677.62 289.42 673.25 293.25 C 668.89 297.09 666.26 303.45 659.70 305.69 C 653.13 307.94 650.48 313.01 641.67 312.67 C 632.86 312.33 630.19 320.45 639.93 321.07 C 649.66 321.70 651.01 325.06 658.30 327.70 C 665.60 330.33 667.22 335.34 672.25 339.75 C 677.28 344.16 678.03 351.07 681.22 355.78 C 684.41 360.49 681.60 372.62 687.32 374.66 C 693.04 376.71 693.13 361.40 695.07 357.07 C 697.01 352.75 699.62 345.03 703.70 340.70 C 707.78 336.36 710.78 330.95 717.31 328.31 C 723.83 325.66 727.04 321.72 735.93 321.93 C 744.81 322.14 746.43 312.86 737.07 312.93 C 727.72 313.00 725.72 308.60 718.75 306.25 C 711.77 303.91 710.24 298.01 704.75 294.25 C 699.27 290.48 699.35 282.25 695.92 278.08 C 692.49 273.90 694.90 260.87 690.00 259.00 Z"/>
</g>
<g fill="#72CCFB" fill-opacity="1.00" stroke="None">
<path d="
M 361.00 362.00 
C 336.98 358.10 318.06 382.43 327.08 403.92 C 336.09 425.42 363.85 427.88 378.25 411.25 C 392.64 394.61 383.08 365.59 361.00 362.00 Z"/>
</g>
<g fill="#3B8DC1" fill-opacity="1.00" stroke="None">
<path d="
M 368.00 478.00 
C 370.32 478.00 372.68 478.13 375.00 478.00
C 376.59 477.91 378.03 477.17 379.00 477.00
C 375.25 477.00 371.08 477.70 368.00 478.00 Z"/>
</g>
<g fill="#00599D" fill-opacity="1.00" stroke="None">
<path d="
M 375.00 478.00 
C 370.78 478.75 366.02 478.21 362.00 478.00
C 360.74 478.11 359.74 478.83 359.00 479.00
C 351.55 483.57 334.26 484.20 325.25 492.25 C 316.24 500.31 306.19 506.10 297.25 514.25 C 288.31 522.40 279.41 528.50 269.92 535.92 C 260.42 543.33 250.73 550.44 239.77 555.77 C 228.81 561.10 216.20 561.43 208.25 573.25 C 200.29 585.06 201.62 602.14 202.00 617.00 C 202.38 631.86 201.12 651.14 202.00 665.00
C 205.42 679.47 216.47 690.04 231.00 693.00
C 235.06 693.15 248.45 690.21 252.22 693.78 C 255.99 697.35 255.08 706.86 258.77 711.23 C 262.46 715.60 263.54 721.89 268.25 725.75 C 272.96 729.61 275.73 734.19 281.08 736.92 C 286.43 739.65 291.10 743.51 297.22 744.78 C 303.34 746.05 311.60 748.08 318.00 748.00 C 324.41 747.91 332.74 746.33 338.67 744.67 C 344.60 743.01 349.63 739.73 354.70 736.70 C 359.76 733.66 362.87 729.21 367.25 725.25 C 371.62 721.29 374.28 715.91 376.92 710.92 C 379.57 705.94 381.56 697.13 383.00 697.00
C 383.25 696.28 384.08 696.28 384.00 695.00
C 383.97 694.50 384.00 694.00 384.00 694.00
C 388.56 689.28 401.03 694.45 408.00 693.00 C 414.97 691.55 425.16 693.63 433.00 693.00 C 440.84 692.37 450.80 693.30 459.00 693.00 C 467.20 692.70 475.63 693.13 484.00 693.00 C 492.37 692.87 501.55 693.06 510.00 693.00 C 518.45 692.94 526.51 693.03 535.00 693.00 C 543.49 692.97 552.49 693.01 561.00 693.00 C 569.51 692.99 577.47 693.01 586.00 693.00 C 594.53 692.99 603.44 693.00 612.00 693.00
C 611.17 694.75 608.56 693.66 607.00 694.00
C 607.00 694.00 607.00 695.00 607.00 695.00
C 608.84 695.00 611.21 694.60 613.00 695.00
C 616.94 695.88 618.36 712.08 623.75 717.25 C 629.15 722.41 632.96 732.09 641.08 735.92 C 649.20 739.75 656.89 745.69 666.67 746.33 C 676.45 746.97 690.27 747.32 699.00 746.00
C 704.99 744.18 710.67 741.44 716.00 738.00
C 731.12 728.58 742.19 712.32 745.00 695.00
C 760.51 695.48 781.40 695.94 791.08 682.08 C 800.76 668.22 799.57 647.85 797.00 632.00
C 796.96 633.00 797.03 634.00 797.00 635.00
C 795.31 620.22 788.14 605.78 776.75 595.25 C 765.36 584.71 748.53 581.23 737.00 577.00
C 736.06 576.71 736.58 575.90 735.00 576.00
C 731.10 580.03 718.98 572.81 712.98 573.02 C 706.97 573.24 697.21 569.22 690.78 568.22 C 684.35 567.22 674.19 565.73 667.99 564.01 C 661.80 562.29 650.79 562.08 648.00 559.00
C 647.55 558.87 646.78 558.20 646.00 558.00
C 633.84 558.67 621.02 549.57 610.75 542.25 C 600.49 534.92 590.08 527.91 580.30 519.70 C 570.52 511.48 560.23 504.84 550.25 496.75 C 540.28 488.65 524.40 483.65 515.00 480.00
C 472.71 471.99 423.20 477.00 379.00 477.00
C 378.03 477.17 376.59 477.91 375.00 478.00
M 420.00 544.00 
C 420.62 548.97 421.42 553.97 422.00 559.00
C 422.17 560.45 422.84 562.11 423.00 563.00
C 425.48 569.02 417.06 568.13 410.00 568.00 C 402.94 567.87 395.32 568.05 388.00 568.00 C 380.68 567.95 372.43 568.03 365.00 568.00 C 357.57 567.97 350.49 568.01 343.00 568.00 C 335.51 567.99 327.54 568.01 320.00 568.00
C 320.53 566.40 322.75 567.27 324.00 567.00
C 324.04 567.00 324.00 566.00 324.00 566.00
C 311.95 566.00 307.45 560.75 314.25 552.25 C 321.05 543.75 323.24 542.43 329.25 535.25 C 335.26 528.06 339.10 525.79 344.75 518.75 C 350.40 511.72 357.17 508.25 365.00 506.00
C 372.02 503.58 383.57 504.26 394.00 504.00 C 404.43 503.74 417.69 501.44 417.93 514.07 C 418.16 526.70 420.20 532.67 420.00 544.00
M 586.00 564.00 
C 583.25 566.75 576.11 564.72 571.93 565.93 C 567.75 567.13 559.55 566.00 555.00 566.00
C 540.67 566.00 526.33 566.00 512.00 566.00
C 512.04 566.00 512.00 567.00 512.00 567.00
C 520.67 567.00 529.33 567.00 538.00 567.00
C 527.26 569.75 516.71 566.77 505.00 568.00 C 493.29 569.23 482.18 566.06 470.00 568.00 C 457.82 569.94 449.56 565.83 450.67 553.33 C 451.78 540.83 444.63 534.33 448.00 523.00
C 447.55 519.54 444.67 511.16 446.00 508.00
C 446.94 505.77 448.18 505.68 451.00 506.00
C 450.94 505.99 451.00 505.00 451.00 505.00
C 450.03 504.84 448.98 505.13 448.00 505.00
C 473.97 502.63 513.15 500.19 533.08 517.92 C 553.01 535.64 571.37 544.92 586.00 564.00
M 324.00 718.00 
C 299.31 723.20 282.00 701.93 282.00 679.00
C 281.75 680.41 280.91 683.76 280.00 685.00
C 277.38 652.21 316.71 633.24 341.23 652.77 C 365.75 672.30 354.22 716.47 324.00 718.00
M 683.00 718.00 
C 680.74 718.17 678.26 718.14 676.00 718.00
C 648.96 720.11 632.15 684.95 646.92 661.92 C 661.70 638.90 695.48 638.76 710.75 661.25 C 726.03 683.73 709.55 719.63 683.00 718.00 Z"/>
</g>
<g fill="#003384" fill-opacity="1.00" stroke="None">
<path d="
M 375.00 478.00 
C 372.68 478.13 370.32 478.00 368.00 478.00
C 366.03 478.00 363.97 477.83 362.00 478.00
C 366.02 478.21 370.78 478.75 375.00 478.00 Z"/>
</g>
<g fill="#05438F" fill-opacity="1.00" stroke="None">
<path d="
M 202.00 665.00 
C 201.12 651.14 202.38 631.86 202.00 617.00 C 201.62 602.14 200.29 585.06 208.25 573.25 C 216.20 561.43 228.81 561.10 239.77 555.77 C 250.73 550.44 260.42 543.33 269.92 535.92 C 279.41 528.50 288.31 522.40 297.25 514.25 C 306.19 506.10 316.24 500.31 325.25 492.25 C 334.26 484.20 351.55 483.57 359.00 479.00
C 341.84 482.84 324.72 488.23 311.75 500.75 C 298.78 513.27 287.33 520.75 273.70 531.70 C 260.06 542.64 247.54 552.27 230.68 557.68 C 213.81 563.09 198.00 576.13 201.00 597.00 C 204.00 617.87 197.11 644.31 202.00 665.00 Z"/>
</g>
<g fill="#06448F" fill-opacity="1.00" stroke="None">
<path d="
M 646.00 558.00 
C 595.88 545.24 566.03 489.67 515.00 480.00
C 524.40 483.65 540.28 488.65 550.25 496.75 C 560.23 504.84 570.52 511.48 580.30 519.70 C 590.08 527.91 600.49 534.92 610.75 542.25 C 621.02 549.57 633.84 558.67 646.00 558.00 Z"/>
</g>
<g fill="#01428A" fill-opacity="1.00" stroke="None">
<path d="
M 365.00 506.00 
C 365.46 505.87 366.77 506.25 367.00 506.00
C 367.24 505.74 369.61 506.00 370.00 506.00
C 372.00 506.00 374.00 506.00 376.00 506.00
C 385.69 505.06 402.69 502.25 412.00 506.00
C 415.18 507.28 413.64 505.83 415.00 509.00
C 419.21 518.81 418.64 533.05 420.00 544.00
C 420.20 532.67 418.16 526.70 417.93 514.07 C 417.69 501.44 404.43 503.74 394.00 504.00 C 383.57 504.26 372.02 503.58 365.00 506.00 Z"/>
</g>
<g fill="#02438C" fill-opacity="1.00" stroke="None">
<path d="
M 451.00 505.00 
C 466.07 503.61 483.72 504.49 498.00 506.00
C 499.66 506.00 501.34 505.92 503.00 506.00
C 520.68 506.91 534.60 520.57 547.75 531.25 C 560.90 541.93 574.33 552.03 586.00 564.00
C 571.37 544.92 553.01 535.64 533.08 517.92 C 513.15 500.19 473.97 502.63 448.00 505.00
C 448.98 505.13 450.03 504.84 451.00 505.00 Z"/>
</g>
<g fill="#277FBD" fill-opacity="1.00" stroke="None">
<path d="
M 376.00 506.00 
C 386.89 506.00 401.48 503.39 412.00 506.00
C 402.69 502.25 385.69 505.06 376.00 506.00 Z"/>
</g>
<g fill="#2E87C4" fill-opacity="1.00" stroke="None">
<path d="
M 451.00 506.00 
C 466.38 507.39 482.55 506.00 498.00 506.00
C 483.72 504.49 466.07 503.61 451.00 505.00
C 451.00 505.00 450.94 505.99 451.00 506.00 Z"/>
</g>
<g fill="#89E0F9" fill-opacity="1.00" stroke="None">
<path d="
M 324.00 566.00 
C 357.00 566.00 390.00 566.00 423.00 566.00
C 423.23 565.53 423.09 563.53 423.00 563.00
C 422.84 562.11 422.17 560.45 422.00 559.00
C 421.93 560.23 420.00 563.05 421.00 565.00
C 410.34 565.40 400.77 564.47 390.00 565.00 C 379.23 565.53 369.04 564.00 358.00 565.00 C 346.96 566.00 337.56 562.88 326.00 565.00 C 314.44 567.12 308.92 558.95 316.25 551.25 C 323.59 543.56 325.57 541.47 331.75 534.75 C 337.94 528.03 341.02 524.51 347.25 518.25 C 353.47 511.99 359.51 506.55 369.00 508.00
C 368.92 506.74 366.94 507.44 367.00 506.00
C 366.77 506.25 365.46 505.87 365.00 506.00
C 357.17 508.25 350.40 511.72 344.75 518.75 C 339.10 525.79 335.26 528.06 329.25 535.25 C 323.24 542.43 321.05 543.75 314.25 552.25 C 307.45 560.75 311.95 566.00 324.00 566.00 Z"/>
</g>
<g fill="#70CAF9" fill-opacity="1.00" stroke="None">
<path d="
M 422.00 559.00 
C 421.42 553.97 420.62 548.97 420.00 544.00
C 418.64 533.05 419.21 518.81 415.00 509.00
C 415.63 510.10 412.52 508.44 414.00 507.00
C 399.50 506.33 383.68 508.33 370.00 506.00
C 369.61 506.00 367.24 505.74 367.00 506.00
C 366.94 507.44 368.92 506.74 369.00 508.00
C 359.51 506.55 353.47 511.99 347.25 518.25 C 341.02 524.51 337.94 528.03 331.75 534.75 C 325.57 541.47 323.59 543.56 316.25 551.25 C 308.92 558.95 314.44 567.12 326.00 565.00 C 337.56 562.88 346.96 566.00 358.00 565.00 C 369.04 564.00 379.23 565.53 390.00 565.00 C 400.77 564.47 410.34 565.40 421.00 565.00
C 420.00 563.05 421.93 560.23 422.00 559.00 Z"/>
</g>
<g fill="#97ECFE" fill-opacity="1.00" stroke="None">
<path d="
M 415.00 509.00 
C 413.64 505.83 415.18 507.28 412.00 506.00
C 401.48 503.39 386.89 506.00 376.00 506.00
C 374.00 506.00 372.00 506.00 370.00 506.00
C 383.68 508.33 399.50 506.33 414.00 507.00
C 412.52 508.44 415.63 510.10 415.00 509.00 Z"/>
</g>
<g fill="#97EDFE" fill-opacity="1.00" stroke="None">
<path d="
M 446.00 508.00 
C 448.53 504.22 459.12 507.71 464.00 507.00 C 468.88 506.29 478.40 506.79 484.00 507.00 C 489.60 507.21 498.04 506.14 503.00 506.00
C 501.34 505.92 499.66 506.00 498.00 506.00
C 482.55 506.00 466.38 507.39 451.00 506.00
C 448.18 505.68 446.94 505.77 446.00 508.00 Z"/>
</g>
<g fill="#70CAF9" fill-opacity="1.00" stroke="None">
<path d="
M 446.00 508.00 
C 444.67 511.16 447.55 519.54 448.00 523.00
C 449.51 534.60 451.66 546.90 453.00 558.00
C 451.81 554.61 456.00 562.70 455.00 565.00
C 488.17 565.67 522.65 563.67 555.00 566.00
C 559.55 566.00 567.75 567.13 571.93 565.93 C 576.11 564.72 583.25 566.75 586.00 564.00
C 574.33 552.03 560.90 541.93 547.75 531.25 C 534.60 520.57 520.68 506.91 503.00 506.00
C 498.04 506.14 489.60 507.21 484.00 507.00 C 478.40 506.79 468.88 506.29 464.00 507.00 C 459.12 507.71 448.53 504.22 446.00 508.00 Z"/>
</g>
<g fill="#014188" fill-opacity="1.00" stroke="None">
<path d="
M 512.00 567.00 
C 503.17 567.00 492.66 567.91 484.00 567.00 C 475.34 566.09 463.31 569.78 456.00 566.00
C 452.06 563.96 453.53 562.39 453.00 558.00
C 451.66 546.90 449.51 534.60 448.00 523.00
C 444.63 534.33 451.78 540.83 450.67 553.33 C 449.56 565.83 457.82 569.94 470.00 568.00 C 482.18 566.06 493.29 569.23 505.00 568.00 C 516.71 566.77 527.26 569.75 538.00 567.00
C 529.33 567.00 520.67 567.00 512.00 567.00 Z"/>
</g>
<g fill="#94EAFE" fill-opacity="1.00" stroke="None">
<path d="
M 453.00 558.00 
C 453.53 562.39 452.06 563.96 456.00 566.00
C 464.23 568.78 475.25 564.96 484.00 566.00 C 492.76 567.04 503.10 566.00 512.00 566.00
C 526.33 566.00 540.67 566.00 555.00 566.00
C 522.65 563.67 488.17 565.67 455.00 565.00
C 456.00 562.70 451.81 554.61 453.00 558.00 Z"/>
</g>
<g fill="#04438E" fill-opacity="1.00" stroke="None">
<path d="
M 735.00 576.00 
C 735.00 576.00 734.50 575.97 734.00 576.00
C 732.47 576.10 732.88 575.22 732.00 575.00
C 720.76 573.68 710.09 570.84 699.00 569.00
C 698.03 568.84 697.53 568.13 697.00 568.00
C 690.79 567.27 685.08 566.01 679.00 565.00
C 677.86 564.81 677.70 564.22 677.00 564.00
C 670.97 563.00 664.91 562.36 659.00 561.00
C 658.20 560.82 657.44 560.12 657.00 560.00
C 656.01 559.88 654.99 560.12 654.00 560.00
C 652.76 559.85 652.75 559.22 652.00 559.00
C 650.76 558.83 649.20 559.36 648.00 559.00
C 650.79 562.08 661.80 562.29 667.99 564.01 C 674.19 565.73 684.35 567.22 690.78 568.22 C 697.21 569.22 706.97 573.24 712.98 573.02 C 718.98 572.81 731.10 580.03 735.00 576.00 Z"/>
</g>
<g fill="#74B0D9" fill-opacity="1.00" stroke="None">
<path d="
M 654.00 560.00 
C 653.35 559.82 653.12 559.16 652.00 559.00
C 652.75 559.22 652.76 559.85 654.00 560.00 Z"/>
</g>
<g fill="#77B1D8" fill-opacity="1.00" stroke="None">
<path d="
M 659.00 561.00 
C 658.07 560.63 658.42 560.17 657.00 560.00
C 657.44 560.12 658.20 560.82 659.00 561.00 Z"/>
</g>
<g fill="#003881" fill-opacity="1.00" stroke="None">
<path d="
M 423.00 563.00 
C 423.09 563.53 423.23 565.53 423.00 566.00
C 421.10 569.85 408.80 565.90 404.00 567.00 C 399.20 568.10 389.81 566.47 384.00 567.00 C 378.19 567.53 370.26 566.67 364.00 567.00 C 357.74 567.33 350.44 566.66 344.00 567.00 C 337.56 567.34 330.47 566.43 324.00 567.00
C 322.75 567.27 320.53 566.40 320.00 568.00
C 327.54 568.01 335.51 567.99 343.00 568.00 C 350.49 568.01 357.57 567.97 365.00 568.00 C 372.43 568.03 380.68 567.95 388.00 568.00 C 395.32 568.05 402.94 567.87 410.00 568.00 C 417.06 568.13 425.48 569.02 423.00 563.00 Z"/>
</g>
<g fill="#63A4C7" fill-opacity="1.00" stroke="None">
<path d="
M 679.00 565.00 
C 678.30 564.78 678.14 564.19 677.00 564.00
C 677.70 564.22 677.86 564.81 679.00 565.00 Z"/>
</g>
<g fill="#348FC8" fill-opacity="1.00" stroke="None">
<path d="
M 324.00 567.00 
C 330.47 566.43 337.56 567.34 344.00 567.00 C 350.44 566.66 357.74 567.33 364.00 567.00 C 370.26 566.67 378.19 567.53 384.00 567.00 C 389.81 566.47 399.20 568.10 404.00 567.00 C 408.80 565.90 421.10 569.85 423.00 566.00
C 390.00 566.00 357.00 566.00 324.00 566.00
C 324.00 566.00 324.04 567.00 324.00 567.00 Z"/>
</g>
<g fill="#247EBB" fill-opacity="1.00" stroke="None">
<path d="
M 512.00 567.00 
C 512.00 567.00 512.04 566.00 512.00 566.00
C 503.10 566.00 492.76 567.04 484.00 566.00 C 475.25 564.96 464.23 568.78 456.00 566.00
C 463.31 569.78 475.34 566.09 484.00 567.00 C 492.66 567.91 503.17 567.00 512.00 567.00 Z"/>
</g>
<g fill="#6AB2D8" fill-opacity="1.00" stroke="None">
<path d="
M 699.00 569.00 
C 698.21 568.75 698.28 568.15 697.00 568.00
C 697.53 568.13 698.03 568.84 699.00 569.00 Z"/>
</g>
<g fill="#75B0D8" fill-opacity="1.00" stroke="None">
<path d="
M 734.00 576.00 
C 732.94 575.29 733.58 575.19 732.00 575.00
C 732.88 575.22 732.47 576.10 734.00 576.00 Z"/>
</g>
<g fill="#06448F" fill-opacity="1.00" stroke="None">
<path d="
M 797.00 632.00 
C 794.54 616.82 789.06 604.53 777.25 593.75 C 765.43 582.98 751.34 581.47 737.00 577.00
C 748.53 581.23 765.36 584.71 776.75 595.25 C 788.14 605.78 795.31 620.22 797.00 635.00
C 797.03 634.00 796.96 633.00 797.00 632.00 Z"/>
</g>
<g fill="#054793" fill-opacity="1.00" stroke="None">
<path d="
M 282.00 679.00 
C 282.00 678.03 281.88 676.96 282.00 676.00
C 282.16 674.67 282.71 674.84 283.00 674.00
C 288.12 646.93 323.81 636.09 343.25 656.75 C 362.69 677.42 351.73 712.16 324.00 718.00
C 354.22 716.47 365.75 672.30 341.23 652.77 C 316.71 633.24 277.38 652.21 280.00 685.00
C 280.91 683.76 281.75 680.41 282.00 679.00 Z"/>
</g>
<g fill="#034591" fill-opacity="1.00" stroke="None">
<path d="
M 676.00 718.00 
C 631.87 715.19 633.60 646.58 678.00 645.00 C 722.41 643.43 728.03 714.60 683.00 718.00
C 709.55 719.63 726.03 683.73 710.75 661.25 C 695.48 638.76 661.70 638.90 646.92 661.92 C 632.15 684.95 648.96 720.11 676.00 718.00 Z"/>
</g>
<g fill="#C6EDFE" fill-opacity="1.00" stroke="None">
<path d="
M 676.00 718.00 
C 678.26 718.14 680.74 718.17 683.00 718.00
C 728.03 714.60 722.41 643.43 678.00 645.00 C 633.60 646.58 631.87 715.19 676.00 718.00 Z"/>
</g>
<g fill="#C6EDFE" fill-opacity="1.00" stroke="None">
<path d="
M 283.00 674.00 
C 282.82 674.95 282.15 675.46 282.00 676.00
C 281.88 676.96 282.00 678.03 282.00 679.00
C 282.00 701.93 299.31 723.20 324.00 718.00
C 351.73 712.16 362.69 677.42 343.25 656.75 C 323.81 636.09 288.12 646.93 283.00 674.00 Z"/>
</g>
<g fill="#5CA8D2" fill-opacity="1.00" stroke="None">
<path d="
M 282.00 676.00 
C 282.15 675.46 282.82 674.95 283.00 674.00
C 282.71 674.84 282.16 674.67 282.00 676.00 Z"/>
</g>
<g fill="#044590" fill-opacity="1.00" stroke="None">
<path d="
M 231.00 693.00 
C 237.57 693.80 244.16 694.32 251.00 694.00
C 255.10 710.65 263.80 727.19 279.00 737.00
C 286.49 741.83 294.24 745.55 303.00 747.00
C 303.86 747.14 304.58 747.91 305.00 748.00
C 323.42 749.66 341.84 748.28 357.00 737.00
C 371.14 726.49 377.68 712.64 383.00 697.00
C 381.56 697.13 379.57 705.94 376.92 710.92 C 374.28 715.91 371.62 721.29 367.25 725.25 C 362.87 729.21 359.76 733.66 354.70 736.70 C 349.63 739.73 344.60 743.01 338.67 744.67 C 332.74 746.33 324.41 747.91 318.00 748.00 C 311.60 748.08 303.34 746.05 297.22 744.78 C 291.10 743.51 286.43 739.65 281.08 736.92 C 275.73 734.19 272.96 729.61 268.25 725.75 C 263.54 721.89 262.46 715.60 258.77 711.23 C 255.08 706.86 255.99 697.35 252.22 693.78 C 248.45 690.21 235.06 693.15 231.00 693.00 Z"/>
</g>
<g fill="#003080" fill-opacity="1.00" stroke="None">
<path d="
M 384.00 694.00 
C 412.80 691.42 443.06 694.00 472.00 694.00
C 505.67 694.00 539.33 694.00 573.00 694.00
C 584.26 694.00 595.76 694.69 607.00 694.00
C 608.56 693.66 611.17 694.75 612.00 693.00
C 603.44 693.00 594.53 692.99 586.00 693.00 C 577.47 693.01 569.51 692.99 561.00 693.00 C 552.49 693.01 543.49 692.97 535.00 693.00 C 526.51 693.03 518.45 692.94 510.00 693.00 C 501.55 693.06 492.37 692.87 484.00 693.00 C 475.63 693.13 467.20 692.70 459.00 693.00 C 450.80 693.30 440.84 692.37 433.00 693.00 C 425.16 693.63 414.97 691.55 408.00 693.00 C 401.03 694.45 388.56 689.28 384.00 694.00 Z"/>
</g>
<g fill="#7CBFE0" fill-opacity="1.00" stroke="None">
<path d="
M 384.00 695.00 
C 412.79 697.60 443.07 695.00 472.00 695.00
C 471.96 695.00 472.00 694.00 472.00 694.00
C 443.06 694.00 412.80 691.42 384.00 694.00
C 384.00 694.00 383.97 694.50 384.00 695.00 Z"/>
</g>
<g fill="#4092C3" fill-opacity="1.00" stroke="None">
<path d="
M 472.00 695.00 
C 505.67 695.00 539.33 695.00 573.00 695.00
C 572.96 695.00 573.00 694.00 573.00 694.00
C 539.33 694.00 505.67 694.00 472.00 694.00
C 472.00 694.00 471.96 695.00 472.00 695.00 Z"/>
</g>
<g fill="#1E78B2" fill-opacity="1.00" stroke="None">
<path d="
M 573.00 695.00 
C 584.33 695.00 595.67 695.00 607.00 695.00
C 607.00 695.00 607.00 694.00 607.00 694.00
C 595.76 694.69 584.26 694.00 573.00 694.00
C 573.00 694.00 572.96 695.00 573.00 695.00 Z"/>
</g>
<g fill="#034590" fill-opacity="1.00" stroke="None">
<path d="
M 613.00 695.00 
C 611.00 702.53 620.28 713.92 623.77 720.23 C 627.27 726.54 636.00 734.05 642.00 738.00
C 658.61 748.94 679.81 751.82 699.00 746.00
C 690.27 747.32 676.45 746.97 666.67 746.33 C 656.89 745.69 649.20 739.75 641.08 735.92 C 632.96 732.09 629.15 722.41 623.75 717.25 C 618.36 712.08 616.94 695.88 613.00 695.00 Z"/>
</g>
<g fill="#EEF9FD" fill-opacity="1.00" stroke="None">
<path d="
M 383.00 697.00 
C 377.68 712.64 371.14 726.49 357.00 737.00
C 357.70 736.93 361.50 737.96 363.00 738.00
C 362.34 737.81 360.45 736.76 360.00 736.00
C 372.72 725.62 381.87 711.63 385.00 696.00
C 460.33 696.00 535.67 696.00 611.00 696.00
C 615.39 711.32 623.87 727.16 638.00 736.00
C 551.40 739.00 461.53 735.00 375.00 738.00
C 389.79 738.00 404.17 737.95 419.00 738.00 C 433.83 738.05 449.13 737.87 464.00 738.00 C 478.87 738.13 494.18 737.70 509.00 738.00 C 523.82 738.30 539.35 737.34 554.00 738.00 C 568.65 738.66 584.76 736.54 599.00 738.00 C 613.24 739.46 629.58 734.73 642.00 738.00
C 636.00 734.05 627.27 726.54 623.77 720.23 C 620.28 713.92 611.00 702.53 613.00 695.00
C 611.21 694.60 608.84 695.00 607.00 695.00
C 595.67 695.00 584.33 695.00 573.00 695.00
C 539.33 695.00 505.67 695.00 472.00 695.00
C 443.07 695.00 412.79 697.60 384.00 695.00
C 384.08 696.28 383.25 696.28 383.00 697.00 Z"/>
</g>
<g fill="#D5F3FE" fill-opacity="1.00" stroke="None">
<path d="
M 363.00 738.00 
C 366.99 738.11 371.00 738.00 375.00 738.00
C 461.53 735.00 551.40 739.00 638.00 736.00
C 623.87 727.16 615.39 711.32 611.00 696.00
C 535.67 696.00 460.33 696.00 385.00 696.00
C 381.87 711.63 372.72 725.62 360.00 736.00
C 360.45 736.76 362.34 737.81 363.00 738.00 Z"/>
</g>
<g fill="#A5E0FE" fill-opacity="1.00" stroke="None">
<path d="
M 716.00 738.00 
C 710.67 741.44 704.99 744.18 699.00 746.00
C 679.81 751.82 658.61 748.94 642.00 738.00
C 629.58 734.73 613.24 739.46 599.00 738.00 C 584.76 736.54 568.65 738.66 554.00 738.00 C 539.35 737.34 523.82 738.30 509.00 738.00 C 494.18 737.70 478.87 738.13 464.00 738.00 C 449.13 737.87 433.83 738.05 419.00 738.00 C 404.17 737.95 389.79 738.00 375.00 738.00
C 371.00 738.00 366.99 738.11 363.00 738.00
C 361.50 737.96 357.70 736.93 357.00 737.00
C 341.84 748.28 323.42 749.66 305.00 748.00
C 303.65 747.88 303.83 747.26 303.00 747.00
C 294.24 745.55 286.49 741.83 279.00 737.00
C 261.81 740.00 241.26 736.01 224.00 739.00
C 227.10 739.10 229.09 739.75 232.00 739.00
C 231.47 742.02 234.51 749.85 236.00 744.00
C 235.47 746.93 237.38 752.41 240.00 751.00
C 241.04 754.88 235.55 753.32 238.00 757.00
C 240.18 752.71 243.86 759.65 241.00 762.00
C 245.68 764.19 252.11 762.91 251.00 770.00
C 254.38 771.31 260.68 770.22 260.00 777.00
C 262.06 771.11 266.58 778.41 267.00 782.00
C 269.69 780.88 273.66 784.45 269.00 786.00
C 272.61 786.05 274.84 784.79 278.00 786.00
C 275.69 791.28 280.72 786.98 283.00 787.00
C 282.45 790.21 283.67 791.60 286.00 789.00
C 288.23 793.14 283.69 791.08 282.00 793.00
C 287.09 793.88 291.32 795.18 295.78 796.22 C 300.23 797.26 305.94 796.88 305.00 801.00
C 308.09 797.30 309.36 799.31 312.00 802.00
C 317.07 799.29 316.81 802.25 322.00 800.00
C 318.56 804.98 327.43 808.34 329.00 803.00
C 332.39 805.39 334.47 805.52 338.00 804.00
C 337.13 808.68 341.97 806.43 344.00 805.00
C 344.46 810.64 353.15 808.08 357.00 807.00
C 356.86 811.48 357.99 808.22 360.00 807.00
C 359.60 815.34 374.70 808.19 371.00 813.00
C 374.92 813.89 373.84 808.27 378.00 809.00
C 375.18 812.62 376.51 812.79 380.00 811.00
C 379.90 815.44 389.21 815.84 384.00 812.00
C 386.82 813.42 392.07 812.08 390.00 816.00
C 393.31 812.64 400.19 818.15 398.00 812.00
C 401.63 816.47 407.60 816.84 410.97 815.02 C 414.35 813.20 421.09 821.86 424.00 815.00
C 425.04 820.24 427.05 817.74 429.00 815.00
C 426.66 820.45 432.77 817.53 437.00 817.00 C 441.23 816.47 446.01 818.75 449.00 815.00
C 452.93 817.24 459.71 818.91 463.00 814.00
C 463.32 819.32 473.23 820.25 475.00 817.00
C 477.48 818.81 480.56 823.42 479.00 817.00
C 481.47 823.75 490.93 813.69 490.00 820.00
C 496.65 815.22 504.95 824.18 510.00 817.00
C 511.82 821.06 516.37 818.87 514.00 815.00
C 516.96 817.88 522.64 815.32 524.00 820.00
C 527.41 820.46 523.44 816.44 527.00 816.00
C 527.08 819.33 531.57 815.49 535.33 818.67 C 539.08 821.85 542.86 813.65 546.92 816.07 C 550.97 818.48 554.36 816.82 556.00 814.00
C 556.40 819.41 562.17 814.57 561.00 819.00
C 563.68 816.90 564.07 817.95 566.00 815.00
C 566.35 817.37 568.31 816.28 569.00 819.00
C 570.17 815.70 575.27 819.44 574.00 815.00
C 577.56 817.19 583.56 819.22 583.00 814.00
C 584.28 815.61 584.33 817.93 585.00 819.00
C 587.51 817.32 586.68 817.21 590.00 819.00
C 589.05 812.00 603.02 816.93 609.00 818.00
C 611.44 811.58 621.19 817.59 627.00 817.00
C 625.05 811.40 632.74 813.94 635.00 816.00
C 632.62 811.18 637.78 814.23 638.00 817.00
C 640.75 810.67 650.27 813.62 654.97 811.98 C 659.67 810.34 665.66 810.61 669.00 814.00
C 670.29 812.00 671.18 809.81 673.00 813.00
C 671.35 808.70 680.51 806.67 677.00 812.00
C 679.94 810.37 680.53 809.33 682.00 806.00
C 686.18 805.91 693.03 810.76 691.00 804.00
C 695.35 805.61 699.57 806.98 700.00 802.00
C 700.79 805.13 708.87 806.07 707.00 800.00
C 708.23 801.66 710.55 804.32 710.00 800.00
C 713.74 803.12 711.74 799.98 713.00 798.00
C 713.81 799.95 716.37 805.35 716.00 800.00
C 719.21 801.03 719.55 800.98 720.00 798.00
C 722.50 800.63 728.48 796.28 727.00 794.00
C 730.54 791.87 729.19 796.00 732.00 796.00
C 729.75 791.93 735.65 788.22 737.00 793.00
C 738.44 788.35 744.61 787.02 748.77 786.77 C 752.93 786.52 755.77 778.49 759.00 783.00
C 759.58 779.88 756.18 779.89 758.00 777.00
C 762.00 784.94 761.55 773.99 765.25 772.26 C 768.96 770.53 772.41 766.71 776.00 767.00
C 778.10 762.75 780.44 758.19 784.23 756.57 C 788.02 754.95 783.70 743.38 789.00 748.00
C 786.76 745.41 789.73 742.92 789.00 740.00
C 793.18 739.42 798.58 741.21 802.00 739.00
C 788.02 740.78 771.36 737.08 758.00 738.00 C 744.64 738.92 727.61 734.72 716.00 738.00 Z"/>
</g>
<g fill="#3E8DC8" fill-opacity="1.00" stroke="None">
<path d="
M 305.00 748.00 
C 304.58 747.91 303.86 747.14 303.00 747.00
C 303.83 747.26 303.65 747.88 305.00 748.00 Z"/>
</g>
</svg>